<svg width="326" height="359" viewBox="0 0 326 359" fill="none" xmlns="http://www.w3.org/2000/svg">
<path d="M158.516 358.773C131.926 358.773 108.348 354.227 87.7803 345.137C67.3266 335.933 51.191 323.263 39.3733 307.127C27.5556 290.991 21.5332 272.413 21.3059 251.391H106.189C106.53 259.004 108.973 265.765 113.518 271.674C118.063 277.469 124.256 282.014 132.097 285.31C139.937 288.605 148.857 290.253 158.857 290.253C168.856 290.253 177.663 288.491 185.276 284.969C193.003 281.333 199.026 276.39 203.344 270.14C207.662 263.777 209.764 256.504 209.65 248.323C209.764 240.141 207.434 232.869 202.662 226.505C197.889 220.142 191.128 215.199 182.379 211.677C173.743 208.154 163.516 206.393 151.698 206.393H117.779V146.395H151.698C162.038 146.395 171.129 144.691 178.97 141.282C186.924 137.873 193.117 133.1 197.548 126.964C201.98 120.715 204.139 113.556 204.025 105.488C204.139 97.6474 202.264 90.7727 198.401 84.8639C194.651 78.8414 189.367 74.1825 182.549 70.8872C175.845 67.5919 168.061 65.9442 159.198 65.9442C149.88 65.9442 141.414 67.5919 133.801 70.8872C126.301 74.1825 120.336 78.8414 115.904 84.8639C111.472 90.8863 109.143 97.8746 108.916 105.829H28.2942C28.5215 85.0343 34.3167 66.7396 45.6799 50.9449C57.043 35.0364 72.4969 22.5938 92.0415 13.6169C111.7 4.64003 134.085 0.151582 159.198 0.151582C184.197 0.151582 206.184 4.52639 225.161 13.276C244.137 22.0256 258.909 33.9569 269.477 49.0699C280.045 64.0693 285.329 81.0572 285.329 100.034C285.442 119.692 279.022 135.884 266.068 148.611C253.228 161.338 236.694 169.178 216.468 172.133V174.86C243.512 178.042 263.909 186.791 277.659 201.109C291.522 215.426 298.396 233.323 298.283 254.8C298.283 275.026 292.317 292.98 280.386 308.661C268.568 324.229 252.091 336.501 230.956 345.478C209.934 354.341 185.787 358.773 158.516 358.773Z" fill="url(#paint0_linear_3374_2279)"/>
<path d="M98.1782 135.934C100.609 135.934 102.616 136.168 104.201 136.636C105.785 137.104 107.028 137.743 107.928 138.553C108.828 139.364 109.459 140.291 109.819 141.335C110.197 142.362 110.386 143.442 110.386 144.576C110.386 145.711 110.179 146.8 109.765 147.844C109.35 148.87 108.666 149.789 107.712 150.599C106.776 151.409 105.524 152.048 103.958 152.517C102.409 152.985 100.483 153.219 98.1782 153.219H78.7324V135.934H98.1782ZM85.4844 147.817H97.9081C98.9164 147.817 99.7716 147.754 100.474 147.628C101.176 147.484 101.734 147.277 102.148 147.007C102.58 146.737 102.887 146.404 103.067 146.008C103.265 145.593 103.364 145.116 103.364 144.576C103.364 144.036 103.265 143.568 103.067 143.172C102.887 142.758 102.58 142.416 102.148 142.145C101.734 141.875 101.176 141.677 100.474 141.551C99.7716 141.407 98.9164 141.335 97.9081 141.335H85.4844V147.817ZM114.295 135.934H121.047V153.219H114.295V135.934ZM129.661 150.599V146.548H148.134V150.599H129.661ZM123.611 153.219L135.198 135.934H142.706L154.4 153.219H146.973L136.953 137.743H140.977L131.038 153.219H123.611ZM154.802 146.872H162.175C162.301 147.25 162.671 147.574 163.283 147.844C163.895 148.096 164.714 148.294 165.74 148.438C166.785 148.564 167.991 148.627 169.36 148.627C170.71 148.627 171.772 148.591 172.547 148.519C173.339 148.429 173.897 148.285 174.221 148.087C174.545 147.871 174.707 147.583 174.707 147.223C174.707 146.881 174.446 146.62 173.924 146.44C173.402 146.242 172.474 146.107 171.142 146.035C169.81 145.963 167.937 145.927 165.524 145.927C163.724 145.927 162.166 145.846 160.852 145.684C159.556 145.503 158.484 145.233 157.638 144.873C156.81 144.495 156.198 144.027 155.802 143.469C155.405 142.893 155.207 142.208 155.207 141.416C155.207 140.048 155.666 138.922 156.585 138.04C157.521 137.14 158.925 136.474 160.798 136.042C162.689 135.591 165.047 135.366 167.874 135.366C172.015 135.366 175.175 135.97 177.354 137.176C179.551 138.364 180.649 140.084 180.649 142.335H173.654C173.564 141.74 173.006 141.29 171.979 140.984C170.953 140.66 169.495 140.498 167.604 140.498C165.731 140.498 164.336 140.606 163.418 140.822C162.518 141.038 162.067 141.407 162.067 141.929C162.067 142.199 162.193 142.416 162.445 142.578C162.698 142.74 163.13 142.875 163.742 142.983C164.372 143.073 165.254 143.136 166.389 143.172C167.523 143.208 168.963 143.226 170.71 143.226C172.637 143.226 174.275 143.325 175.625 143.523C176.976 143.703 178.065 143.982 178.893 144.36C179.74 144.738 180.352 145.224 180.73 145.819C181.108 146.395 181.297 147.079 181.297 147.871C181.297 149.24 180.865 150.356 180.001 151.22C179.136 152.084 177.768 152.724 175.896 153.138C174.023 153.552 171.574 153.759 168.549 153.759C166.839 153.759 165.263 153.66 163.823 153.462C162.4 153.264 161.131 152.976 160.015 152.598C158.898 152.201 157.953 151.724 157.179 151.166C156.405 150.59 155.811 149.951 155.396 149.249C155 148.528 154.802 147.736 154.802 146.872ZM198.886 148.762V144.036H212.363C212.903 144.036 213.353 143.955 213.713 143.793C214.091 143.613 214.28 143.244 214.28 142.686C214.28 142.109 214.091 141.74 213.713 141.578C213.353 141.416 212.903 141.335 212.363 141.335H199.318V153.219H192.566V135.934H211.309C212.66 135.934 213.92 136.033 215.091 136.231C216.279 136.411 217.314 136.744 218.196 137.23C219.079 137.716 219.772 138.4 220.276 139.283C220.78 140.165 221.032 141.299 221.032 142.686C221.032 144.072 220.78 145.17 220.276 145.981C219.772 146.791 219.079 147.394 218.196 147.79C217.314 148.186 216.279 148.447 215.091 148.573C213.92 148.699 212.66 148.762 211.309 148.762H198.886ZM239.944 153.759C236.019 153.759 232.859 153.417 230.464 152.733C228.07 152.03 226.323 151.004 225.225 149.654C224.144 148.285 223.604 146.593 223.604 144.576C223.604 142.56 224.144 140.876 225.225 139.526C226.323 138.157 228.07 137.131 230.464 136.447C232.859 135.745 236.019 135.393 239.944 135.393C243.869 135.393 247.029 135.745 249.424 136.447C251.819 137.131 253.556 138.157 254.636 139.526C255.735 140.876 256.284 142.56 256.284 144.576C256.284 146.593 255.735 148.285 254.636 149.654C253.556 151.004 251.819 152.03 249.424 152.733C247.029 153.417 243.869 153.759 239.944 153.759ZM239.944 148.627C241.799 148.627 243.401 148.519 244.751 148.303C246.102 148.069 247.146 147.664 247.884 147.088C248.623 146.494 248.992 145.656 248.992 144.576C248.992 143.496 248.623 142.668 247.884 142.091C247.146 141.497 246.102 141.092 244.751 140.876C243.401 140.642 241.799 140.525 239.944 140.525C238.089 140.525 236.46 140.642 235.056 140.876C233.669 141.092 232.58 141.497 231.788 142.091C231.013 142.668 230.626 143.496 230.626 144.576C230.626 145.656 231.013 146.494 231.788 147.088C232.58 147.664 233.669 148.069 235.056 148.303C236.46 148.519 238.089 148.627 239.944 148.627ZM259.797 153.219V135.934H280.674C282.313 135.934 283.78 136.123 285.077 136.501C286.391 136.861 287.426 137.473 288.183 138.337C288.957 139.202 289.344 140.381 289.344 141.875C289.344 142.866 289.164 143.685 288.804 144.333C288.444 144.981 287.948 145.485 287.318 145.846C286.688 146.206 285.968 146.467 285.158 146.629C284.347 146.791 283.501 146.89 282.619 146.926L280.647 146.548C282.79 146.566 284.437 146.656 285.59 146.818C286.76 146.98 287.57 147.277 288.02 147.709C288.489 148.123 288.723 148.726 288.723 149.519V153.219H281.971V150.329C281.971 149.789 281.863 149.384 281.647 149.114C281.449 148.825 280.998 148.627 280.296 148.519C279.612 148.411 278.55 148.357 277.109 148.357H266.549V153.219H259.797ZM266.549 143.847H280.674C281.214 143.847 281.665 143.757 282.025 143.577C282.403 143.397 282.592 143.055 282.592 142.551C282.592 142.082 282.403 141.767 282.025 141.605C281.665 141.425 281.214 141.335 280.674 141.335H266.549V143.847ZM105.821 179.925L103.31 181.357V167.934H110.062V185.219H103.31L82.9726 173.443L85.4844 171.985V185.219H78.7324V167.934H85.4844L105.821 179.925ZM129.907 185.759C125.982 185.759 122.822 185.417 120.428 184.733C118.033 184.03 116.286 183.004 115.188 181.654C114.108 180.285 113.567 178.593 113.567 176.576C113.567 174.56 114.108 172.876 115.188 171.526C116.286 170.157 118.033 169.131 120.428 168.447C122.822 167.745 125.982 167.393 129.907 167.393C133.833 167.393 136.992 167.745 139.387 168.447C141.782 169.131 143.519 170.157 144.6 171.526C145.698 172.876 146.247 174.56 146.247 176.576C146.247 178.593 145.698 180.285 144.6 181.654C143.519 183.004 141.782 184.03 139.387 184.733C136.992 185.417 133.833 185.759 129.907 185.759ZM129.907 180.627C131.762 180.627 133.364 180.519 134.715 180.303C136.065 180.069 137.109 179.664 137.848 179.088C138.586 178.494 138.955 177.656 138.955 176.576C138.955 175.496 138.586 174.668 137.848 174.091C137.109 173.497 136.065 173.092 134.715 172.876C133.364 172.642 131.762 172.525 129.907 172.525C128.053 172.525 126.423 172.642 125.019 172.876C123.632 173.092 122.543 173.497 121.751 174.091C120.977 174.668 120.59 175.496 120.59 176.576C120.59 177.656 120.977 178.494 121.751 179.088C122.543 179.664 123.632 180.069 125.019 180.303C126.423 180.519 128.053 180.627 129.907 180.627ZM148.815 178.872H156.188C156.314 179.25 156.683 179.574 157.296 179.844C157.908 180.096 158.727 180.294 159.753 180.438C160.798 180.564 162.004 180.627 163.372 180.627C164.723 180.627 165.785 180.591 166.559 180.519C167.352 180.429 167.91 180.285 168.234 180.087C168.558 179.871 168.72 179.583 168.72 179.223C168.72 178.881 168.459 178.62 167.937 178.44C167.415 178.242 166.487 178.107 165.155 178.035C163.823 177.963 161.95 177.927 159.537 177.927C157.737 177.927 156.179 177.846 154.865 177.684C153.568 177.503 152.497 177.233 151.651 176.873C150.823 176.495 150.21 176.027 149.814 175.469C149.418 174.893 149.22 174.208 149.22 173.416C149.22 172.048 149.679 170.922 150.598 170.04C151.534 169.14 152.938 168.474 154.811 168.042C156.701 167.591 159.06 167.366 161.887 167.366C166.028 167.366 169.188 167.97 171.367 169.176C173.563 170.364 174.662 172.084 174.662 174.335H167.667C167.577 173.74 167.019 173.29 165.992 172.984C164.966 172.66 163.507 172.498 161.617 172.498C159.744 172.498 158.349 172.606 157.431 172.822C156.53 173.038 156.08 173.407 156.08 173.929C156.08 174.199 156.206 174.416 156.458 174.578C156.71 174.74 157.143 174.875 157.755 174.983C158.385 175.073 159.267 175.136 160.402 175.172C161.536 175.208 162.976 175.226 164.723 175.226C166.649 175.226 168.288 175.325 169.638 175.523C170.989 175.703 172.078 175.982 172.906 176.36C173.753 176.738 174.365 177.224 174.743 177.819C175.121 178.395 175.31 179.079 175.31 179.871C175.31 181.24 174.878 182.356 174.014 183.22C173.149 184.084 171.781 184.724 169.908 185.138C168.036 185.552 165.587 185.759 162.562 185.759C160.852 185.759 159.276 185.66 157.836 185.462C156.413 185.264 155.144 184.976 154.028 184.598C152.911 184.201 151.966 183.724 151.192 183.166C150.418 182.59 149.823 181.951 149.409 181.249C149.013 180.528 148.815 179.736 148.815 178.872ZM177.327 178.872H184.7C184.826 179.25 185.195 179.574 185.807 179.844C186.419 180.096 187.238 180.294 188.265 180.438C189.309 180.564 190.515 180.627 191.884 180.627C193.234 180.627 194.297 180.591 195.071 180.519C195.863 180.429 196.421 180.285 196.745 180.087C197.069 179.871 197.231 179.583 197.231 179.223C197.231 178.881 196.97 178.62 196.448 178.44C195.926 178.242 194.999 178.107 193.666 178.035C192.334 177.963 190.461 177.927 188.049 177.927C186.248 177.927 184.691 177.846 183.376 177.684C182.08 177.503 181.009 177.233 180.162 176.873C179.334 176.495 178.722 176.027 178.326 175.469C177.93 174.893 177.732 174.208 177.732 173.416C177.732 172.048 178.191 170.922 179.109 170.04C180.045 169.14 181.45 168.474 183.322 168.042C185.213 167.591 187.572 167.366 190.398 167.366C194.54 167.366 197.7 167.97 199.878 169.176C202.075 170.364 203.173 172.084 203.173 174.335H196.178C196.088 173.74 195.53 173.29 194.504 172.984C193.477 172.66 192.019 172.498 190.128 172.498C188.256 172.498 186.86 172.606 185.942 172.822C185.042 173.038 184.592 173.407 184.592 173.929C184.592 174.199 184.718 174.416 184.97 174.578C185.222 174.74 185.654 174.875 186.266 174.983C186.896 175.073 187.779 175.136 188.913 175.172C190.047 175.208 191.488 175.226 193.234 175.226C195.161 175.226 196.799 175.325 198.15 175.523C199.5 175.703 200.589 175.982 201.418 176.36C202.264 176.738 202.876 177.224 203.254 177.819C203.632 178.395 203.821 179.079 203.821 179.871C203.821 181.24 203.389 182.356 202.525 183.22C201.661 184.084 200.292 184.724 198.42 185.138C196.547 185.552 194.099 185.759 191.074 185.759C189.363 185.759 187.788 185.66 186.347 185.462C184.925 185.264 183.655 184.976 182.539 184.598C181.423 184.201 180.477 183.724 179.703 183.166C178.929 182.59 178.335 181.951 177.921 181.249C177.525 180.528 177.327 179.736 177.327 178.872ZM210.395 182.599V178.548H228.868V182.599H210.395ZM204.345 185.219L215.932 167.934H223.44L235.134 185.219H227.707L217.687 169.743H221.711L211.772 185.219H204.345ZM110.737 211.008C110.647 212.718 110.026 214.15 108.873 215.302C107.721 216.454 106.019 217.318 103.769 217.895C101.536 218.471 98.7093 218.759 95.2883 218.759C92.6775 218.759 90.3368 218.615 88.2662 218.327C86.1956 218.057 84.4311 217.589 82.9726 216.922C81.5142 216.238 80.3979 215.311 79.6236 214.141C78.8494 212.97 78.4623 211.494 78.4623 209.711C78.4623 207.929 78.8494 206.443 79.6236 205.255C80.3979 204.049 81.5142 203.094 82.9726 202.392C84.4311 201.672 86.1956 201.159 88.2662 200.853C90.3368 200.546 92.6775 200.393 95.2883 200.393C98.7093 200.393 101.545 200.709 103.796 201.339C106.047 201.951 107.748 202.86 108.9 204.067C110.053 205.273 110.674 206.74 110.764 208.469H103.742C103.526 207.893 103.13 207.389 102.553 206.956C101.977 206.506 101.113 206.155 99.9607 205.903C98.8083 205.651 97.2509 205.525 95.2883 205.525C92.9836 205.525 91.111 205.669 89.6706 205.957C88.2302 206.227 87.1769 206.668 86.5107 207.28C85.8445 207.893 85.5114 208.703 85.5114 209.711C85.5114 210.629 85.8445 211.377 86.5107 211.953C87.1769 212.529 88.2302 212.952 89.6706 213.222C91.111 213.492 92.9836 213.627 95.2883 213.627C97.2509 213.627 98.7993 213.51 99.9337 213.276C101.086 213.042 101.95 212.727 102.526 212.331C103.103 211.917 103.499 211.476 103.715 211.008H110.737ZM130.356 218.759C126.431 218.759 123.271 218.417 120.876 217.733C118.481 217.03 116.735 216.004 115.636 214.654C114.556 213.285 114.016 211.593 114.016 209.576C114.016 207.56 114.556 205.876 115.636 204.526C116.735 203.157 118.481 202.131 120.876 201.447C123.271 200.745 126.431 200.393 130.356 200.393C134.281 200.393 137.441 200.745 139.836 201.447C142.23 202.131 143.968 203.157 145.048 204.526C146.146 205.876 146.696 207.56 146.696 209.576C146.696 211.593 146.146 213.285 145.048 214.654C143.968 216.004 142.23 217.03 139.836 217.733C137.441 218.417 134.281 218.759 130.356 218.759ZM130.356 213.627C132.21 213.627 133.813 213.519 135.163 213.303C136.514 213.069 137.558 212.664 138.296 212.088C139.034 211.494 139.403 210.656 139.403 209.576C139.403 208.496 139.034 207.668 138.296 207.091C137.558 206.497 136.514 206.092 135.163 205.876C133.813 205.642 132.21 205.525 130.356 205.525C128.501 205.525 126.872 205.642 125.467 205.876C124.081 206.092 122.992 206.497 122.199 207.091C121.425 207.668 121.038 208.496 121.038 209.576C121.038 210.656 121.425 211.494 122.199 212.088C122.992 212.664 124.081 213.069 125.467 213.303C126.872 213.519 128.501 213.627 130.356 213.627ZM177.298 212.925L174.786 214.357V200.934H181.538V218.219H174.786L154.449 206.443L156.961 204.985V218.219H150.209V200.934H156.961L177.298 212.925ZM184.234 200.934H212.322V206.065H184.234V200.934ZM194.902 205.714H201.654V218.219H194.902V205.714ZM215.934 215.599V211.548H234.407V215.599H215.934ZM209.884 218.219L221.47 200.934H228.979L240.673 218.219H233.246L223.226 202.743H227.25L217.311 218.219H209.884Z" fill="white"/>
<path d="M101.582 266.018L96.8234 270.171L98.2488 276.353C98.3242 276.676 98.3027 277.014 98.1869 277.325C98.0711 277.636 97.8662 277.906 97.5978 278.102C97.3294 278.297 97.0094 278.409 96.6779 278.423C96.3463 278.437 96.0179 278.354 95.7336 278.182L90.3415 274.912L84.961 278.182C84.6768 278.354 84.3483 278.437 84.0167 278.423C83.6852 278.409 83.3652 278.297 83.0968 278.102C82.8284 277.906 82.6235 277.636 82.5078 277.325C82.392 277.014 82.3705 276.676 82.4459 276.353L83.8691 270.177L79.11 266.018C78.8582 265.801 78.6762 265.514 78.5867 265.194C78.4972 264.874 78.5043 264.535 78.6069 264.219C78.7096 263.902 78.9033 263.624 79.1637 263.417C79.4242 263.211 79.7398 263.086 80.0711 263.058L86.3441 262.514L88.7928 256.674C88.9206 256.367 89.1363 256.106 89.4127 255.922C89.689 255.737 90.0137 255.639 90.3457 255.639C90.6778 255.639 91.0024 255.737 91.2788 255.922C91.5551 256.106 91.7708 256.367 91.8987 256.674L94.3547 262.514L100.626 263.058C100.957 263.086 101.273 263.211 101.533 263.417C101.793 263.624 101.987 263.902 102.09 264.219C102.192 264.535 102.199 264.874 102.11 265.194C102.021 265.514 101.838 265.801 101.587 266.018H101.582Z" fill="#FCFF00"/>
<path d="M135.341 266.018L130.583 270.171L132.009 276.353C132.084 276.676 132.062 277.014 131.947 277.325C131.831 277.636 131.626 277.906 131.358 278.102C131.089 278.297 130.769 278.409 130.438 278.423C130.106 278.437 129.778 278.354 129.493 278.182L124.101 274.912L118.721 278.182C118.437 278.354 118.108 278.437 117.777 278.423C117.445 278.409 117.125 278.297 116.857 278.102C116.588 277.906 116.383 277.636 116.268 277.325C116.152 277.014 116.13 276.676 116.206 276.353L117.629 270.177L112.87 266.018C112.618 265.801 112.436 265.514 112.347 265.194C112.257 264.874 112.264 264.535 112.367 264.219C112.469 263.902 112.663 263.624 112.923 263.417C113.184 263.211 113.5 263.086 113.831 263.058L120.104 262.514L122.553 256.674C122.68 256.367 122.896 256.106 123.172 255.922C123.449 255.737 123.773 255.639 124.106 255.639C124.438 255.639 124.762 255.737 125.039 255.922C125.315 256.106 125.531 256.367 125.658 256.674L128.115 262.514L134.385 263.058C134.717 263.086 135.032 263.211 135.293 263.417C135.553 263.624 135.747 263.902 135.85 264.219C135.952 264.535 135.959 264.874 135.87 265.194C135.78 265.514 135.598 265.801 135.347 266.018H135.341Z" fill="#FCFF00"/>
<path d="M169.102 266.018L164.344 270.171L165.769 276.353C165.845 276.676 165.823 277.014 165.707 277.325C165.592 277.636 165.387 277.906 165.118 278.102C164.85 278.297 164.53 278.409 164.198 278.423C163.867 278.437 163.538 278.354 163.254 278.182L157.862 274.912L152.482 278.182C152.197 278.354 151.869 278.437 151.537 278.423C151.206 278.409 150.886 278.297 150.617 278.102C150.349 277.906 150.144 277.636 150.028 277.325C149.912 277.014 149.891 276.676 149.966 276.353L151.39 270.177L146.63 266.018C146.379 265.801 146.197 265.514 146.107 265.194C146.018 264.874 146.025 264.535 146.127 264.219C146.23 263.902 146.424 263.624 146.684 263.417C146.945 263.211 147.26 263.086 147.592 263.058L153.865 262.514L156.313 256.674C156.441 256.367 156.657 256.106 156.933 255.922C157.21 255.737 157.534 255.639 157.866 255.639C158.198 255.639 158.523 255.737 158.799 255.922C159.076 256.106 159.291 256.367 159.419 256.674L161.875 262.514L168.146 263.058C168.477 263.086 168.793 263.211 169.054 263.417C169.314 263.624 169.508 263.902 169.61 264.219C169.713 264.535 169.72 264.874 169.631 265.194C169.541 265.514 169.359 265.801 169.107 266.018H169.102Z" fill="#FCFF00"/>
<path d="M202.862 266.018L198.104 270.171L199.529 276.353C199.604 276.676 199.583 277.014 199.467 277.325C199.351 277.636 199.146 277.906 198.878 278.102C198.61 278.297 198.29 278.409 197.958 278.423C197.627 278.437 197.298 278.354 197.014 278.182L191.622 274.912L186.241 278.182C185.957 278.354 185.629 278.437 185.297 278.423C184.965 278.409 184.645 278.297 184.377 278.102C184.109 277.906 183.904 277.636 183.788 277.325C183.672 277.014 183.651 276.676 183.726 276.353L185.149 270.177L180.39 266.018C180.139 265.801 179.957 265.514 179.867 265.194C179.778 264.874 179.785 264.535 179.887 264.219C179.99 263.902 180.184 263.624 180.444 263.417C180.704 263.211 181.02 263.086 181.351 263.058L187.624 262.514L190.073 256.674C190.201 256.367 190.417 256.106 190.693 255.922C190.969 255.737 191.294 255.639 191.626 255.639C191.958 255.639 192.283 255.737 192.559 255.922C192.835 256.106 193.051 256.367 193.179 256.674L195.635 262.514L201.906 263.058C202.237 263.086 202.553 263.211 202.813 263.417C203.074 263.624 203.267 263.902 203.37 264.219C203.473 264.535 203.48 264.874 203.39 265.194C203.301 265.514 203.119 265.801 202.867 266.018H202.862Z" fill="#FCFF00"/>
<path d="M236.622 266.018L231.863 270.171L233.289 276.353C233.364 276.676 233.343 277.014 233.227 277.325C233.111 277.636 232.906 277.906 232.638 278.102C232.369 278.297 232.049 278.409 231.718 278.423C231.386 278.437 231.058 278.354 230.774 278.182L225.382 274.912L220.001 278.182C219.717 278.354 219.388 278.437 219.057 278.423C218.725 278.409 218.405 278.297 218.137 278.102C217.868 277.906 217.664 277.636 217.548 277.325C217.432 277.014 217.41 276.676 217.486 276.353L218.909 270.177L214.15 266.018C213.898 265.801 213.716 265.514 213.627 265.194C213.537 264.874 213.544 264.535 213.647 264.219C213.75 263.902 213.943 263.624 214.204 263.417C214.464 263.211 214.78 263.086 215.111 263.058L221.384 262.514L223.833 256.674C223.961 256.367 224.176 256.106 224.453 255.922C224.729 255.737 225.054 255.639 225.386 255.639C225.718 255.639 226.042 255.737 226.319 255.922C226.595 256.106 226.811 256.367 226.939 256.674L229.395 262.514L235.666 263.058C235.997 263.086 236.313 263.211 236.573 263.417C236.834 263.624 237.027 263.902 237.13 264.219C237.233 264.535 237.24 264.874 237.15 265.194C237.061 265.514 236.879 265.801 236.627 266.018H236.622Z" fill="#FCFF00"/>
<defs>
<linearGradient id="paint0_linear_3374_2279" x1="163" y1="4" x2="163" y2="355.331" gradientUnits="userSpaceOnUse">
<stop stop-color="#F70293"/>
<stop offset="1" stop-color="#F70293" stop-opacity="0"/>
</linearGradient>
</defs>
</svg>
