<svg width="27" height="17" viewBox="0 0 27 17" fill="none" xmlns="http://www.w3.org/2000/svg">
<path d="M0.28418 0.833008H0.586006V8.8471H0.28418V0.833008ZM0.887832 0.833008H1.18966V8.8471H0.887832V0.833008ZM2.70007 0.833008H3.0019V8.8471H2.70007V0.833008ZM8.57511 0.833008H8.87694V8.8471H8.57511V0.833008ZM10.5392 0.833008H10.8411V8.8471H10.5392V0.833008ZM12.4437 0.833008H12.7456V8.8471H12.4437V0.833008ZM12.9346 0.833008H13.2364V8.8471H12.9346V0.833008ZM13.4261 0.833008H13.7279V8.8471H13.4261V0.833008ZM13.9785 0.833008H14.2803V8.8471H13.9785V0.833008ZM14.5309 0.833008H14.8327V8.8471H14.5309V0.833008ZM16.0663 0.833008H16.3681V8.8471H16.0663V0.833008ZM19.8734 0.833008H20.1752V8.8471H19.8734V0.833008ZM23.8446 0.833008H24.1464V8.8471H23.8446V0.833008ZM24.9308 0.833008H25.2326V8.8471H24.9308V0.833008ZM25.7158 0.833008H26.0176V8.8471H25.7158V0.833008ZM26.1989 0.833008H26.5008V8.8471H26.1989V0.833008ZM4.69302 0.833008H4.99485V8.8471H4.69302V0.833008ZM1.67284 0.833008H2.21625V8.8471H1.67284V0.833008ZM5.25951 0.833008H5.80292V8.8471H5.25951V0.833008ZM7.77793 0.833008H8.32135V8.8471H7.77793V0.833008ZM9.06726 0.833008H9.61068V8.8471H9.06726V0.833008ZM11.0935 0.833008H11.637V8.8471H11.0935V0.833008ZM16.8705 0.833008H17.7158V8.8471H16.8705V0.833008ZM17.9747 0.833008H18.6392V8.8471H17.9747V0.833008ZM19.1397 0.833008H19.6831V8.8471H19.1397V0.833008ZM20.6802 0.833008H21.5863V8.8471H20.6802V0.833008ZM22.4546 0.833008H23.3608V8.8471H22.4546V0.833008ZM3.30373 0.833008H4.39056V8.8471H3.30373V0.833008ZM6.12077 0.833008H6.96601V8.8471H6.12077V0.833008Z" fill="#1C1A1D"/>
<path d="M0.676758 15.9636V11.3766H2.398C2.68561 11.3655 2.9725 11.4128 3.24132 11.5157C3.4474 11.6038 3.62113 11.7535 3.7386 11.9444C3.85499 12.125 3.91745 12.3351 3.91867 12.55C3.91868 12.7459 3.86337 12.9378 3.7591 13.1036C3.64171 13.2864 3.4745 13.4318 3.2772 13.5227C3.53046 13.5877 3.75551 13.7338 3.91803 13.9386C4.06843 14.1385 4.1472 14.3832 4.14167 14.6333C4.1434 14.8408 4.0969 15.0459 4.00582 15.2324C3.92877 15.3997 3.81301 15.5462 3.66811 15.6599C3.51727 15.7679 3.34651 15.845 3.1657 15.8867C2.92325 15.9424 2.67491 15.9682 2.4262 15.9636H0.676758ZM1.28426 13.3042H2.27624C2.46999 13.3118 2.6639 13.2939 2.85298 13.251C2.99135 13.2159 3.11404 13.1356 3.20159 13.0229C3.28309 12.9056 3.32425 12.7651 3.31886 12.6224C3.32169 12.4807 3.28364 12.3412 3.20928 12.2206C3.1383 12.1061 3.02804 12.0213 2.89912 11.9822C2.67044 11.9296 2.43571 11.908 2.20127 11.9181H1.28426V13.3042ZM1.28426 15.4228H2.4262C2.56433 15.4264 2.70254 15.4191 2.83953 15.401C2.96344 15.3809 3.0824 15.3374 3.19005 15.2728C3.2884 15.2092 3.36821 15.1208 3.42139 15.0165C3.48346 14.898 3.51475 14.7658 3.51239 14.632C3.51668 14.4724 3.47072 14.3155 3.38102 14.1834C3.29253 14.0566 3.16419 13.963 3.01639 13.9175C2.79786 13.8584 2.57169 13.8325 2.34545 13.8406H1.28426V15.4228ZM5.02857 13.7297C4.99019 13.0761 5.21047 12.4337 5.64183 11.9412C5.84512 11.7277 6.09135 11.5598 6.3643 11.4484C6.63725 11.3371 6.9307 11.2849 7.2253 11.2952C7.62763 11.2897 8.02375 11.3948 8.37044 11.599C8.70747 11.7982 8.97794 12.0928 9.14776 12.4455C9.33091 12.8296 9.42238 13.251 9.41498 13.6765C9.42247 14.1091 9.326 14.5372 9.13366 14.9248C8.95926 15.2776 8.68078 15.5684 8.33584 15.7579C7.99487 15.9459 7.61144 16.0434 7.22209 16.0412C6.81467 16.0479 6.41358 15.9397 6.06477 15.7291C5.72914 15.5256 5.46029 15.2285 5.2913 14.8742C5.11722 14.5179 5.02733 14.1263 5.02857 13.7297ZM5.65465 13.7393C5.62856 14.2166 5.78946 14.6853 6.10322 15.046C6.24472 15.2009 6.41781 15.3238 6.61083 15.4061C6.80385 15.4885 7.0123 15.5285 7.22209 15.5234C7.43316 15.5287 7.64288 15.4884 7.83689 15.4051C8.0309 15.3218 8.20461 15.1975 8.34609 15.0408C8.66262 14.6581 8.82101 14.1689 8.7889 13.6733C8.79729 13.3378 8.73371 13.0043 8.60242 12.6954C8.48668 12.429 8.29385 12.2034 8.04875 12.0476C7.80383 11.8936 7.51967 11.8138 7.23042 11.8175C7.02545 11.8144 6.82189 11.8519 6.63149 11.9279C6.4411 12.0039 6.26765 12.1169 6.12117 12.2603C5.94784 12.4626 5.81717 12.6978 5.73701 12.9519C5.65684 13.2059 5.62883 13.4735 5.65465 13.7387V13.7393ZM10.4102 15.9636V11.3766H11.017V15.4221H13.2759V15.9636H10.4102ZM14.2487 15.9636V11.3766H17.5656V11.9181H14.8555V13.3228H17.3932V13.8611H14.8555V15.4221H17.6719V15.9636H14.2487ZM19.9148 15.9636V11.9181H18.4031V11.3766H22.0391V11.9181H20.5217V15.9636H19.9148ZM22.5986 13.7297C22.5605 13.076 22.7813 12.4335 23.2131 11.9412C23.4164 11.7277 23.6626 11.5598 23.9356 11.4484C24.2085 11.3371 24.502 11.2849 24.7966 11.2952C25.1989 11.2897 25.595 11.3948 25.9417 11.599C26.2788 11.7982 26.5492 12.0928 26.719 12.4455C26.9022 12.8296 26.9937 13.251 26.9863 13.6765C26.9938 14.1091 26.8973 14.5372 26.7049 14.9248C26.53 15.2783 26.2506 15.5693 25.9046 15.7585C25.5636 15.9465 25.1802 16.044 24.7908 16.0418C24.3831 16.0485 23.9818 15.9401 23.6329 15.7291C23.2979 15.5253 23.0298 15.2282 22.8613 14.8742C22.6872 14.5179 22.5973 14.1263 22.5986 13.7297ZM23.2247 13.7393C23.1986 14.2166 23.3595 14.6853 23.6732 15.046C23.8147 15.2009 23.9878 15.3238 24.1808 15.4061C24.3739 15.4885 24.5823 15.5285 24.7921 15.5234C25.0038 15.5294 25.2142 15.4894 25.4089 15.4062C25.6036 15.323 25.778 15.1986 25.9199 15.0415C26.2365 14.6587 26.3949 14.1696 26.3627 13.674C26.3693 13.338 26.3038 13.0045 26.1705 12.6961C26.0548 12.4297 25.8619 12.204 25.6168 12.0482C25.3719 11.8943 25.0877 11.8144 24.7985 11.8181C24.5935 11.815 24.39 11.8526 24.1996 11.9286C24.0092 12.0046 23.8357 12.1175 23.6892 12.261C23.5162 12.4633 23.3858 12.6984 23.3059 12.9524C23.226 13.2063 23.1981 13.4737 23.224 13.7387L23.2247 13.7393Z" fill="#1C1A1D"/>
</svg>
