<svg width="37" height="15" viewBox="0 0 37 15" fill="none" xmlns="http://www.w3.org/2000/svg">
<g id="elo" clip-path="url(#clip0_3374_2953)">
<g id="Group">
<path id="Vector" d="M5.86881 3.49546C6.28389 3.3571 6.72665 3.28331 7.18601 3.28331C9.19687 3.28331 10.8757 4.7112 11.2594 6.60952L14.1096 6.0284C13.4566 2.80181 10.6063 0.374023 7.18786 0.374023C3.7694 0.374023 5.65296 0.501316 4.94824 0.737453L5.87065 3.49546H5.86881Z" fill="#1C1A1D"/>
<path id="Vector_2" d="M2.50558 12.7313L4.43342 10.5526C3.57373 9.79067 3.03136 8.67824 3.03136 7.43852C3.03136 6.1988 3.57373 5.08822 4.43342 4.32815L2.50558 2.14941C1.04448 3.44263 0.12207 5.33358 0.12207 7.43852C0.12207 9.54346 1.04448 11.4363 2.50558 12.7313Z" fill="#1C1A1D"/>
<path id="Vector_3" d="M11.2583 8.27148C10.8727 10.168 9.19578 11.594 7.18677 11.594C5.17776 11.594 6.28096 11.5202 5.86772 11.38L4.94531 14.1399C5.65003 14.3742 6.40272 14.5015 7.18677 14.5015C10.6015 14.5015 13.4518 12.0774 14.1085 8.85629L11.2583 8.27148Z" fill="#1C1A1D"/>
</g>
<path id="Vector_4" d="M16.6029 10.6436C16.5088 10.4924 16.3833 10.2507 16.3058 10.0717C15.8539 9.02387 15.8336 7.93912 16.2136 6.89864C16.6324 5.75669 17.433 4.88409 18.468 4.43764C19.7686 3.87866 21.2057 3.98751 22.4528 4.72728C23.2442 5.18111 23.805 5.88214 24.2312 6.87466C24.2847 7.00195 24.3327 7.13662 24.3806 7.25284L16.6029 10.6418V10.6436ZM19.2004 6.12197C18.2761 6.5186 17.8001 7.38567 17.8998 8.40032L21.8108 6.716C21.1374 5.92642 20.263 5.66445 19.2004 6.12012V6.12197ZM22.2978 9.78394C22.2978 9.78394 22.2978 9.78394 22.296 9.78579L22.2148 9.73044C21.9805 10.1086 21.6171 10.4167 21.1577 10.616C20.2833 10.996 19.4734 10.8982 18.8904 10.3872L18.8369 10.4684L17.8444 11.9535C18.0916 12.125 18.3554 12.2689 18.6322 12.3851C19.728 12.8408 20.8496 12.8187 21.9547 12.339C22.7535 11.9922 23.3807 11.4646 23.8087 10.7949L22.2978 9.78394Z" fill="#1C1A1D"/>
<path id="Vector_5" d="M27.0975 2.25391V10.5076L28.3815 11.0279L27.6528 12.7288L26.236 12.1385C25.9187 12.0001 25.701 11.7898 25.5387 11.5518C25.3818 11.3101 25.2656 10.9762 25.2656 10.5298V2.25391H27.0994H27.0975Z" fill="#1C1A1D"/>
<g id="Group_2">
<path id="Vector_6" d="M30.4224 8.40509C30.4224 7.70221 30.7342 7.07128 31.2249 6.64328L29.9077 5.1748C29.0148 5.96439 28.4521 7.1174 28.4521 8.4014C28.4521 9.68724 29.013 10.8421 29.904 11.6317L31.2194 10.1632C30.7305 9.73336 30.4224 9.10428 30.4224 8.40324V8.40509Z" fill="#1C1A1D"/>
<path id="Vector_7" d="M32.7613 10.7449C32.5031 10.7449 32.2522 10.7006 32.0197 10.6231L31.3906 12.4919C31.8205 12.6358 32.2798 12.7152 32.7595 12.7152C34.8441 12.717 36.5838 11.2375 36.9878 9.27272L35.0544 8.87793C34.8349 9.94424 33.8904 10.7449 32.7613 10.7449Z" fill="#1C1A1D"/>
<path id="Vector_8" d="M32.7664 4.09277C32.2886 4.09277 31.8293 4.17026 31.3994 4.31231L32.023 6.18296C32.2573 6.10547 32.5063 6.06304 32.7646 6.06304C33.8973 6.06304 34.8419 6.86923 35.0559 7.93923L36.9892 7.54813C36.5926 5.5797 34.8529 4.09462 32.7664 4.09277Z" fill="#1C1A1D"/>
</g>
</g>
<defs>
<clipPath id="clip0_3374_2953">
<rect width="36.8669" height="14.1277" fill="white" transform="translate(0.123047 0.373047)"/>
</clipPath>
</defs>
</svg>
