<svg width="37" height="17" viewBox="0 0 37 17" fill="none" xmlns="http://www.w3.org/2000/svg">
<path id="Subtract" fill-rule="evenodd" clip-rule="evenodd" d="M7.08934 0.591066H10.8282V0.583984H37.0003C36.2568 4.23755 35.5346 7.79201 34.8124 11.3464L34.8122 11.3474C34.6281 12.2609 34.4369 13.2027 34.2457 14.0312C33.8279 15.8156 32.2842 16.2901 30.0324 16.2901H0.928711C1.27428 14.6351 1.60849 12.9447 1.9447 11.2442C2.35943 9.1466 2.77718 7.03364 3.22302 4.95308C3.27347 4.71228 3.31947 4.46702 3.36558 4.22115C3.46184 3.70786 3.55861 3.19191 3.69746 2.70834C4.08692 1.33459 5.43943 0.668959 7.08934 0.591066ZM10.6651 5.37078C10.8987 5.57613 10.6934 6.06473 10.5376 6.17095H10.5305C10.4314 6.24176 10.0986 6.31966 9.94985 6.17095C9.79406 6.02225 9.88612 5.61154 9.98526 5.47699C10.049 5.39202 10.141 5.34245 10.2968 5.31413C10.4668 5.2858 10.5942 5.30705 10.6651 5.37078ZM8.313 5.37786C8.31336 5.3755 8.31373 5.37314 8.3141 5.37078L8.29993 5.37786H8.313ZM7.971 7.38253C8.08962 6.7174 8.20742 6.0568 8.313 5.37786H9.21341C8.85227 7.11275 8.55486 8.89721 8.26453 10.7029H7.3723C7.44955 10.2162 7.53944 9.74221 7.62933 9.26818C7.70424 8.87315 7.77914 8.47813 7.84674 8.07579C7.13945 8.00712 6.25902 8.03168 5.50897 8.0526C5.48556 8.05326 5.46228 8.05391 5.43913 8.05455C5.29136 8.73091 5.18008 9.44833 5.06868 10.1665C5.04129 10.3431 5.01389 10.5197 4.98594 10.6958H4.09371C4.34401 9.43919 4.56484 8.14939 4.78543 6.86098C4.87062 6.36338 4.95578 5.86598 5.04259 5.37078H5.92065C5.8463 5.71776 5.78257 6.07713 5.71884 6.4365C5.65511 6.79587 5.59138 7.15524 5.51703 7.50221C6.12853 7.5518 6.76574 7.54137 7.402 7.53097C7.58358 7.528 7.76507 7.52503 7.94587 7.52346C7.95425 7.47645 7.96263 7.42948 7.971 7.38253ZM19.4599 7.53762C19.7148 7.09151 20.2601 6.61707 20.954 6.90031C20.9448 6.98604 20.9277 7.06514 20.9106 7.14393C20.8883 7.24736 20.866 7.35024 20.862 7.46681C20.1326 7.2048 19.6228 7.68633 19.4245 8.25282C19.2502 8.75085 19.1774 9.39249 19.1102 9.98559C19.0818 10.2358 19.0545 10.4773 19.0209 10.6958H18.2348C18.2575 10.5783 18.2803 10.4609 18.3031 10.3435C18.5217 9.21635 18.7395 8.09318 18.8934 6.90031H19.5873C19.5653 6.99158 19.5489 7.08845 19.5324 7.18531C19.5119 7.30639 19.4914 7.42747 19.4599 7.53762ZM21.3222 9.06716C21.301 9.30084 21.3222 9.61241 21.393 9.79652V9.81068C21.6409 10.448 22.7101 10.2993 23.2696 10.009C23.2572 10.0755 23.2458 10.1437 23.2343 10.2122C23.2127 10.3405 23.191 10.4696 23.1633 10.5896C22.1366 10.9437 20.8761 10.887 20.5929 9.96647C20.3521 9.17338 20.6991 7.92001 21.216 7.37475C21.7471 6.81534 22.7526 6.70912 23.8077 6.87907C23.7962 6.9652 23.7824 7.04783 23.7687 7.13028C23.7484 7.25119 23.7283 7.3717 23.7157 7.50221C23.0713 7.27562 22.264 7.2048 21.8533 7.60843C21.5559 7.89876 21.3647 8.54315 21.3222 9.06716ZM28.7079 7.49513C28.9345 7.14816 29.5081 6.5675 30.202 6.91448C30.1742 7.00605 30.1575 7.11105 30.1407 7.21689C30.1276 7.2993 30.1144 7.38223 30.0958 7.45973C28.8637 7.11275 28.6229 8.26698 28.453 9.32208C28.4315 9.45685 28.4079 9.58301 28.3849 9.70559C28.3246 10.0274 28.2689 10.3247 28.2689 10.6888H27.4687C27.7307 9.45662 27.9573 8.19617 28.1414 6.89323H28.8354C28.8089 6.97926 28.7933 7.07766 28.7776 7.17615C28.7597 7.28843 28.7419 7.40082 28.7079 7.49513ZM9.71617 6.94988C9.71617 6.92156 9.71617 6.89323 9.73742 6.89323H10.5163C10.2473 8.1112 10.0348 9.38581 9.84363 10.6888H9.05762C9.31254 9.47079 9.54622 8.23866 9.71617 6.94988ZM15.2466 7.38892C15.5865 7.02778 16.068 6.86491 16.6345 6.82242H16.6203C17.2647 6.77285 17.902 6.90739 18.0791 7.42432C18.1819 7.72743 18.1192 8.05122 18.0587 8.36407C18.04 8.46052 18.0216 8.55593 18.0082 8.64937C17.1656 8.62812 16.2804 8.62104 15.4378 8.64937C15.3103 9.20878 15.3103 9.85317 15.7139 10.1081C16.2521 10.448 17.1514 10.1718 17.6683 9.98063C17.6558 10.0746 17.6377 10.1644 17.6197 10.2543C17.5968 10.3677 17.574 10.4813 17.5621 10.6038C16.3017 10.9083 14.7297 10.9508 14.588 9.6903C14.4889 8.79807 14.8288 7.82795 15.2466 7.38892ZM15.544 8.21033H17.3851C17.555 7.50221 17.1514 7.27562 16.5849 7.29686C15.983 7.3181 15.6006 7.78546 15.544 8.21033ZM11.8476 7.23313C12.1946 6.94988 13.0018 6.65247 13.6675 6.90031L13.6816 6.90739C15.0483 7.41724 14.2623 10.0373 13.2426 10.5896C12.7469 10.8587 11.5785 10.9932 11.4015 10.2993C11.2944 10.752 11.2241 11.2416 11.1538 11.7312C11.1219 11.9537 11.0899 12.1762 11.0545 12.3953H10.2685C10.6155 10.5967 10.9483 8.77683 11.2315 6.90739H11.9043C11.9009 6.96373 11.8883 7.0123 11.8758 7.06039C11.8616 7.11505 11.8476 7.16908 11.8476 7.23313ZM11.8264 7.24729C11.8264 7.24729 11.8405 7.24021 11.8476 7.23313C11.8476 7.24729 11.8405 7.24729 11.8264 7.24729ZM11.5148 9.66906C11.5927 10.4197 12.6265 10.4267 13.0443 9.98063V9.97355C13.3913 9.60533 13.6816 8.69894 13.5754 7.96957C13.455 7.12691 12.2371 7.19064 11.8264 7.69341C11.7992 7.83952 11.7753 7.99052 11.7507 8.14563C11.724 8.31377 11.6966 8.48673 11.6635 8.66353C11.6462 8.7556 11.6248 8.84767 11.6035 8.93946C11.546 9.18653 11.489 9.43156 11.5148 9.66906ZM32.8433 6.95696C32.9637 6.41171 33.0558 5.84522 33.1195 5.25748L33.1266 5.26456H33.9126C33.8272 5.74254 33.7343 6.2129 33.6413 6.68326C33.3872 7.96891 33.133 9.25456 33.0345 10.6958H32.3264C32.3264 10.5365 32.3503 10.4011 32.3742 10.2657C32.3822 10.2205 32.3901 10.1754 32.3972 10.1293C32.3876 10.0955 32.345 10.1638 32.3032 10.2309C32.2836 10.2621 32.2643 10.2932 32.2485 10.3134C32.1777 10.3984 32.0715 10.5259 31.9723 10.5896C31.4483 10.9366 30.4003 10.8375 30.0392 10.4267C29.8267 10.186 29.763 9.85317 29.763 9.51327C29.7418 7.76422 30.9172 6.34798 32.8433 6.95696ZM30.5703 9.41414C30.5773 9.95231 30.8394 10.2851 31.3704 10.271L31.3775 10.278C32.3348 10.256 32.4928 9.21245 32.6385 8.24984C32.6803 7.97345 32.7212 7.70375 32.7796 7.46681C32.4893 7.36767 32.206 7.27562 31.8095 7.3181C30.9668 7.41016 30.549 8.46526 30.5703 9.41414ZM24.5156 7.30246C24.5505 7.17133 24.5851 7.0417 24.6079 6.90031L24.6008 6.89323C24.7711 6.88933 24.966 6.87421 25.1711 6.85831C26.083 6.78757 27.1959 6.70124 27.2421 7.51638C27.2569 7.82235 27.1857 8.15239 27.1125 8.49213C27.0806 8.63988 27.0483 8.78946 27.0226 8.9397L27.0155 8.98142C26.9191 9.54558 26.8312 10.0598 26.8243 10.6888H26.1516C26.1445 10.4692 26.1728 10.2851 26.2083 10.1081C25.8825 10.625 24.9478 11.0003 24.183 10.6746C23.7865 10.5046 23.5811 9.89566 23.7652 9.27251C24.0414 8.34488 25.1036 8.13244 26.4065 8.25282C26.4087 8.24694 26.4108 8.24097 26.4131 8.23491C26.4694 8.08048 26.5463 7.86977 26.4986 7.67216C26.3651 7.05412 24.943 7.40431 24.4707 7.52063L24.4592 7.52346C24.4768 7.44785 24.4963 7.37493 24.5156 7.30246ZM24.4592 9.52744C24.3459 10.4763 25.4789 10.363 25.8825 9.96647C26.1746 9.68121 26.2582 9.16795 26.327 8.74534C26.3299 8.72734 26.3328 8.7095 26.3357 8.69186C25.4081 8.57856 24.5583 8.74142 24.4592 9.52744Z" fill="#1C1A1D"/>
</svg>
