<svg width="96" height="24" viewBox="0 0 96 24" fill="none" xmlns="http://www.w3.org/2000/svg">
<path d="M9.38856 3.56142C9.01775 3.26956 8.71595 2.88935 8.52822 2.45264C8.36517 2.07365 8.25897 1.65053 8.29974 1.25C8.33263 0.928364 8.60797 0.647022 8.93443 0.611765C9.00666 0.60397 9.02382 0.607939 9.04671 0.608511C9.07996 0.611014 9.08819 0.610977 9.12109 0.616091C9.44112 0.665865 9.70715 0.955395 9.72539 1.28333C9.74827 1.69497 9.88916 2.10025 10.1888 2.37587C10.4473 2.61348 10.7931 2.74968 11.1475 2.75304C11.2219 2.75329 11.2962 2.7549 11.3702 2.75665C11.4114 2.75469 11.4525 2.75354 11.4936 2.75315C11.5076 2.75311 11.5211 2.75311 11.5351 2.75315C11.6009 2.75376 11.6667 2.75655 11.7325 2.76137C11.9485 2.75858 12.1562 2.73963 12.3475 2.67237C12.9003 2.47764 13.3001 1.92375 13.3022 1.32034L13.3033 1.28294C13.3344 0.902974 13.6795 0.587664 14.0571 0.608725C14.4282 0.629429 14.7372 0.967268 14.7322 1.3596C14.7215 2.21067 14.3088 3.03989 13.6455 3.56703C13.8586 3.75304 14.0474 3.9668 14.2037 4.20395C14.504 4.65982 14.6818 5.19468 14.7225 5.7392C16.6012 6.07951 18.358 7.09699 19.5631 8.60633C20.0351 9.1974 20.4202 9.85492 20.7091 10.5586C20.9165 11.0675 21.1557 11.572 21.3059 12.0851C21.7182 13.495 21.3431 15.1081 20.3172 16.1948C19.3728 17.1949 17.9268 17.693 16.558 17.4752C15.9193 17.3737 15.3197 17.1148 14.7604 16.7747L14.7601 16.7755C14.5988 17.0104 14.4118 17.2242 14.2044 17.4155C13.9963 17.6093 13.7682 17.7813 13.5239 17.9279L12.1984 22.2711C12.0961 22.5771 11.7904 22.7924 11.4779 22.7763C11.1868 22.7617 10.924 22.5521 10.8303 22.2711L9.50727 17.9358C9.27127 17.7953 9.04993 17.6301 8.84754 17.4438C8.77924 17.3812 8.71344 17.3165 8.65015 17.2489C8.59473 17.1899 8.54109 17.1295 8.48924 17.0672L8.48853 17.0662L8.48532 17.0622L8.48102 17.0572L8.4803 17.0562C8.40593 16.966 8.33513 16.8724 8.26862 16.7755L8.26791 16.7744C7.71438 17.1109 7.11937 17.369 6.49075 17.472C5.52923 17.6297 4.51335 17.4438 3.66983 16.9542C2.61247 16.3403 1.84368 15.2482 1.6227 14.0464C1.47824 13.2615 1.56262 12.4377 1.85727 11.6968C2.11222 11.0646 2.34607 10.4217 2.66325 9.82631C3.6498 7.97549 5.3937 6.54239 7.42581 5.94066C7.71616 5.85466 8.01117 5.78551 8.30939 5.73337C8.37983 4.91048 8.77209 4.11709 9.38856 3.56142ZM12.9 7.04346C12.6765 7.04357 12.453 7.044 12.2295 7.044C12.2299 7.93508 12.2306 8.82617 12.2295 9.71725C12.2377 9.81487 12.2331 9.9132 12.2349 10.0115C12.2617 10.6813 12.3918 11.3439 12.6132 11.9743C13.058 13.2322 13.8693 14.3632 14.9371 15.166L14.9424 15.1707C15.5675 15.6444 16.268 16.0353 17.0192 16.0903C17.7598 16.1443 18.5196 15.8912 19.0796 15.4027C19.951 14.6422 20.2814 13.3295 19.8437 12.2289C19.5967 11.6167 19.375 10.9909 19.0596 10.4185C17.9597 8.42328 15.7684 7.08355 13.4417 7.04486L13.426 7.04461L13.3941 7.04425L13.3645 7.04404H13.3584L12.9 7.04346ZM10.7992 9.75551V7.044H9.68784H9.6832C7.73476 7.04679 5.80706 7.96605 4.58343 9.49877C4.19618 9.98328 3.88079 10.5222 3.64336 11.1C3.36981 11.7722 3.01868 12.4366 2.98578 13.1443C2.93465 14.2345 3.574 15.3273 4.56377 15.8111C5.36617 16.2033 6.35094 16.169 7.1444 15.7592C8.7088 14.9507 9.91992 13.5018 10.472 11.8087C10.6841 11.1497 10.7978 10.4564 10.7992 9.75551Z" fill="#FFF301"/>
<mask id="path-2-outside-1_3374_2011" maskUnits="userSpaceOnUse" x="31.2324" y="4.12128" width="64" height="15" fill="black">
<rect fill="white" x="31.2324" y="4.12128" width="64" height="15"/>
<path d="M32.5747 18.1213V5.29142H37.2116C38.3156 5.29142 39.1407 5.56452 39.6869 6.11071C40.2447 6.65691 40.5236 7.48202 40.5236 8.58604C40.5236 9.12062 40.4423 9.58547 40.2796 9.98059C40.1169 10.3757 39.8961 10.7011 39.6172 10.9568C39.3499 11.2008 39.0477 11.3693 38.7107 11.4623C38.9431 11.5204 39.1872 11.6192 39.4428 11.7586C39.7101 11.8865 39.96 12.0724 40.1924 12.3165C40.4248 12.5605 40.6108 12.8685 40.7502 13.2404C40.9013 13.6122 40.9768 14.0538 40.9768 14.5652C40.9768 15.4716 40.8316 16.1863 40.541 16.7093C40.2505 17.2206 39.838 17.5867 39.3034 17.8075C38.7688 18.0167 38.1296 18.1213 37.3859 18.1213H32.5747ZM33.9692 16.8836H37.351C37.8159 16.8836 38.2168 16.8139 38.5538 16.6744C38.9024 16.5234 39.1697 16.2677 39.3557 15.9074C39.5532 15.5355 39.652 15.0126 39.652 14.3386C39.652 13.8621 39.5474 13.4553 39.3382 13.1183C39.1407 12.7813 38.8676 12.5256 38.5189 12.3513C38.1703 12.1654 37.781 12.0724 37.351 12.0724H33.9692V16.8836ZM33.9692 10.9742H37.2987C37.8449 10.9742 38.2923 10.7766 38.641 10.3815C39.0012 9.9864 39.1872 9.45182 39.1988 8.77779C39.222 7.95268 39.0419 7.37743 38.6584 7.05204C38.2865 6.71502 37.8042 6.54651 37.2116 6.54651H33.9692V10.9742ZM45.7974 18.191C45.5185 18.191 45.2222 18.1678 44.9084 18.1213C44.5946 18.0632 44.2983 17.9528 44.0194 17.7901C43.7405 17.6274 43.5139 17.3833 43.3395 17.0579C43.1652 16.7209 43.0781 16.2677 43.0781 15.6982V7.87133C43.0781 7.37162 43.1478 6.95907 43.2872 6.63367C43.4383 6.29665 43.6359 6.03518 43.8799 5.84924C44.124 5.65167 44.3971 5.51222 44.6992 5.43087C45.0014 5.3379 45.3035 5.29142 45.6057 5.29142C46.3262 5.30304 46.9944 5.32047 47.6103 5.34371C48.2263 5.35533 48.8073 5.37276 49.3535 5.39601C49.9114 5.40763 50.4517 5.42506 50.9747 5.4483V6.56394H45.9543C45.5011 6.56394 45.1408 6.68597 44.8735 6.93001C44.6063 7.17406 44.4726 7.56337 44.4726 8.09795V11.1311L50.2077 11.2183V12.2816L44.4726 12.3688V15.3845C44.4726 15.8145 44.5423 16.1399 44.6818 16.3607C44.8329 16.5815 45.0304 16.7267 45.2745 16.7965C45.5185 16.8662 45.7684 16.901 46.024 16.901H50.9747V18.0167C50.4401 18.0515 49.8765 18.0806 49.2838 18.1038C48.7027 18.1271 48.1159 18.1445 47.5232 18.1561C46.9421 18.1678 46.3669 18.1794 45.7974 18.191ZM55.8582 18.191C55.5793 18.191 55.283 18.1678 54.9692 18.1213C54.6554 18.0632 54.3591 17.9528 54.0802 17.7901C53.8013 17.6274 53.5746 17.3833 53.4003 17.0579C53.226 16.7209 53.1388 16.2677 53.1388 15.6982V7.87133C53.1388 7.37162 53.2086 6.95907 53.348 6.63367C53.4991 6.29665 53.6967 6.03518 53.9407 5.84924C54.1848 5.65167 54.4579 5.51222 54.76 5.43087C55.0622 5.3379 55.3643 5.29142 55.6665 5.29142C56.387 5.30304 57.0552 5.32047 57.6711 5.34371C58.2871 5.35533 58.8681 5.37276 59.4143 5.39601C59.9721 5.40763 60.5125 5.42506 61.0355 5.4483V6.56394H56.0151C55.5619 6.56394 55.2016 6.68597 54.9343 6.93001C54.667 7.17406 54.5334 7.56337 54.5334 8.09795V11.1311L60.2685 11.2183V12.2816L54.5334 12.3688V15.3845C54.5334 15.8145 54.6031 16.1399 54.7426 16.3607C54.8937 16.5815 55.0912 16.7267 55.3353 16.7965C55.5793 16.8662 55.8292 16.901 56.0848 16.901H61.0355V18.0167C60.5009 18.0515 59.9373 18.0806 59.3446 18.1038C58.7635 18.1271 58.1767 18.1445 57.584 18.1561C57.0029 18.1678 56.4277 18.1794 55.8582 18.191ZM62.6203 18.1213L67.0131 5.29142H68.7912L73.184 18.1213H71.7546L70.4646 14.4606H65.3048L64.0497 18.1213H62.6203ZM65.6534 13.2055H70.116L67.9021 6.51165L65.6534 13.2055ZM78.7592 18.2259C78.5035 18.2259 78.1956 18.2142 77.8353 18.191C77.4867 18.1794 77.1264 18.1561 76.7545 18.1213C76.3827 18.098 76.0282 18.069 75.6912 18.0341C75.3658 17.9993 75.0927 17.9586 74.8719 17.9121V16.8487C75.1624 16.872 75.5169 16.8952 75.9352 16.9185C76.3536 16.9417 76.801 16.9592 77.2775 16.9708C77.7656 16.9824 78.2421 16.9882 78.7069 16.9882C79.2299 16.9882 79.7005 16.9359 80.1189 16.8313C80.5373 16.7267 80.8685 16.535 81.1125 16.2561C81.3682 15.9772 81.496 15.5762 81.496 15.0533V14.1817C81.496 13.589 81.3449 13.1416 81.0428 12.8394C80.7406 12.5256 80.2525 12.3688 79.5785 12.3688H78.2014C77.1439 12.3688 76.3129 12.1363 75.7086 11.6715C75.1159 11.2066 74.8196 10.4048 74.8196 9.26588V8.53375C74.8196 7.32513 75.145 6.46516 75.7958 5.95383C76.4466 5.44249 77.3647 5.18682 78.55 5.18682C78.9219 5.18682 79.3403 5.21007 79.8051 5.25655C80.27 5.29142 80.7174 5.3379 81.1474 5.39601C81.589 5.44249 81.955 5.49479 82.2456 5.55289V6.61624C81.7342 6.56975 81.1532 6.52908 80.5024 6.49422C79.8632 6.45935 79.2589 6.44192 78.6895 6.44192C78.1665 6.44192 77.7133 6.50584 77.3298 6.63367C76.9463 6.74988 76.6499 6.96488 76.4408 7.27865C76.2432 7.5808 76.1444 8.0166 76.1444 8.58604V9.17872C76.1444 9.88762 76.3304 10.3757 76.7022 10.643C77.0741 10.9103 77.5913 11.0439 78.2537 11.0439H79.7354C80.4443 11.0439 81.0253 11.1718 81.4786 11.4274C81.9318 11.6831 82.2688 12.0376 82.4896 12.4908C82.7104 12.9324 82.8208 13.4437 82.8208 14.0248V15.0184C82.8208 15.8784 82.6349 16.5408 82.263 17.0056C81.9028 17.4705 81.4147 17.7901 80.7987 17.9644C80.1944 18.1387 79.5146 18.2259 78.7592 18.2259ZM88.5407 18.1213V13.8679L84.4616 5.29142H85.9085L89.2554 12.4733L92.6023 5.29142H93.9968L89.9352 13.8679V18.1213H88.5407Z"/>
</mask>
<path d="M32.5747 18.1213V5.29142H37.2116C38.3156 5.29142 39.1407 5.56452 39.6869 6.11071C40.2447 6.65691 40.5236 7.48202 40.5236 8.58604C40.5236 9.12062 40.4423 9.58547 40.2796 9.98059C40.1169 10.3757 39.8961 10.7011 39.6172 10.9568C39.3499 11.2008 39.0477 11.3693 38.7107 11.4623C38.9431 11.5204 39.1872 11.6192 39.4428 11.7586C39.7101 11.8865 39.96 12.0724 40.1924 12.3165C40.4248 12.5605 40.6108 12.8685 40.7502 13.2404C40.9013 13.6122 40.9768 14.0538 40.9768 14.5652C40.9768 15.4716 40.8316 16.1863 40.541 16.7093C40.2505 17.2206 39.838 17.5867 39.3034 17.8075C38.7688 18.0167 38.1296 18.1213 37.3859 18.1213H32.5747ZM33.9692 16.8836H37.351C37.8159 16.8836 38.2168 16.8139 38.5538 16.6744C38.9024 16.5234 39.1697 16.2677 39.3557 15.9074C39.5532 15.5355 39.652 15.0126 39.652 14.3386C39.652 13.8621 39.5474 13.4553 39.3382 13.1183C39.1407 12.7813 38.8676 12.5256 38.5189 12.3513C38.1703 12.1654 37.781 12.0724 37.351 12.0724H33.9692V16.8836ZM33.9692 10.9742H37.2987C37.8449 10.9742 38.2923 10.7766 38.641 10.3815C39.0012 9.9864 39.1872 9.45182 39.1988 8.77779C39.222 7.95268 39.0419 7.37743 38.6584 7.05204C38.2865 6.71502 37.8042 6.54651 37.2116 6.54651H33.9692V10.9742ZM45.7974 18.191C45.5185 18.191 45.2222 18.1678 44.9084 18.1213C44.5946 18.0632 44.2983 17.9528 44.0194 17.7901C43.7405 17.6274 43.5139 17.3833 43.3395 17.0579C43.1652 16.7209 43.0781 16.2677 43.0781 15.6982V7.87133C43.0781 7.37162 43.1478 6.95907 43.2872 6.63367C43.4383 6.29665 43.6359 6.03518 43.8799 5.84924C44.124 5.65167 44.3971 5.51222 44.6992 5.43087C45.0014 5.3379 45.3035 5.29142 45.6057 5.29142C46.3262 5.30304 46.9944 5.32047 47.6103 5.34371C48.2263 5.35533 48.8073 5.37276 49.3535 5.39601C49.9114 5.40763 50.4517 5.42506 50.9747 5.4483V6.56394H45.9543C45.5011 6.56394 45.1408 6.68597 44.8735 6.93001C44.6063 7.17406 44.4726 7.56337 44.4726 8.09795V11.1311L50.2077 11.2183V12.2816L44.4726 12.3688V15.3845C44.4726 15.8145 44.5423 16.1399 44.6818 16.3607C44.8329 16.5815 45.0304 16.7267 45.2745 16.7965C45.5185 16.8662 45.7684 16.901 46.024 16.901H50.9747V18.0167C50.4401 18.0515 49.8765 18.0806 49.2838 18.1038C48.7027 18.1271 48.1159 18.1445 47.5232 18.1561C46.9421 18.1678 46.3669 18.1794 45.7974 18.191ZM55.8582 18.191C55.5793 18.191 55.283 18.1678 54.9692 18.1213C54.6554 18.0632 54.3591 17.9528 54.0802 17.7901C53.8013 17.6274 53.5746 17.3833 53.4003 17.0579C53.226 16.7209 53.1388 16.2677 53.1388 15.6982V7.87133C53.1388 7.37162 53.2086 6.95907 53.348 6.63367C53.4991 6.29665 53.6967 6.03518 53.9407 5.84924C54.1848 5.65167 54.4579 5.51222 54.76 5.43087C55.0622 5.3379 55.3643 5.29142 55.6665 5.29142C56.387 5.30304 57.0552 5.32047 57.6711 5.34371C58.2871 5.35533 58.8681 5.37276 59.4143 5.39601C59.9721 5.40763 60.5125 5.42506 61.0355 5.4483V6.56394H56.0151C55.5619 6.56394 55.2016 6.68597 54.9343 6.93001C54.667 7.17406 54.5334 7.56337 54.5334 8.09795V11.1311L60.2685 11.2183V12.2816L54.5334 12.3688V15.3845C54.5334 15.8145 54.6031 16.1399 54.7426 16.3607C54.8937 16.5815 55.0912 16.7267 55.3353 16.7965C55.5793 16.8662 55.8292 16.901 56.0848 16.901H61.0355V18.0167C60.5009 18.0515 59.9373 18.0806 59.3446 18.1038C58.7635 18.1271 58.1767 18.1445 57.584 18.1561C57.0029 18.1678 56.4277 18.1794 55.8582 18.191ZM62.6203 18.1213L67.0131 5.29142H68.7912L73.184 18.1213H71.7546L70.4646 14.4606H65.3048L64.0497 18.1213H62.6203ZM65.6534 13.2055H70.116L67.9021 6.51165L65.6534 13.2055ZM78.7592 18.2259C78.5035 18.2259 78.1956 18.2142 77.8353 18.191C77.4867 18.1794 77.1264 18.1561 76.7545 18.1213C76.3827 18.098 76.0282 18.069 75.6912 18.0341C75.3658 17.9993 75.0927 17.9586 74.8719 17.9121V16.8487C75.1624 16.872 75.5169 16.8952 75.9352 16.9185C76.3536 16.9417 76.801 16.9592 77.2775 16.9708C77.7656 16.9824 78.2421 16.9882 78.7069 16.9882C79.2299 16.9882 79.7005 16.9359 80.1189 16.8313C80.5373 16.7267 80.8685 16.535 81.1125 16.2561C81.3682 15.9772 81.496 15.5762 81.496 15.0533V14.1817C81.496 13.589 81.3449 13.1416 81.0428 12.8394C80.7406 12.5256 80.2525 12.3688 79.5785 12.3688H78.2014C77.1439 12.3688 76.3129 12.1363 75.7086 11.6715C75.1159 11.2066 74.8196 10.4048 74.8196 9.26588V8.53375C74.8196 7.32513 75.145 6.46516 75.7958 5.95383C76.4466 5.44249 77.3647 5.18682 78.55 5.18682C78.9219 5.18682 79.3403 5.21007 79.8051 5.25655C80.27 5.29142 80.7174 5.3379 81.1474 5.39601C81.589 5.44249 81.955 5.49479 82.2456 5.55289V6.61624C81.7342 6.56975 81.1532 6.52908 80.5024 6.49422C79.8632 6.45935 79.2589 6.44192 78.6895 6.44192C78.1665 6.44192 77.7133 6.50584 77.3298 6.63367C76.9463 6.74988 76.6499 6.96488 76.4408 7.27865C76.2432 7.5808 76.1444 8.0166 76.1444 8.58604V9.17872C76.1444 9.88762 76.3304 10.3757 76.7022 10.643C77.0741 10.9103 77.5913 11.0439 78.2537 11.0439H79.7354C80.4443 11.0439 81.0253 11.1718 81.4786 11.4274C81.9318 11.6831 82.2688 12.0376 82.4896 12.4908C82.7104 12.9324 82.8208 13.4437 82.8208 14.0248V15.0184C82.8208 15.8784 82.6349 16.5408 82.263 17.0056C81.9028 17.4705 81.4147 17.7901 80.7987 17.9644C80.1944 18.1387 79.5146 18.2259 78.7592 18.2259ZM88.5407 18.1213V13.8679L84.4616 5.29142H85.9085L89.2554 12.4733L92.6023 5.29142H93.9968L89.9352 13.8679V18.1213H88.5407Z" fill="#FFF301"/>
<path d="M32.5747 18.1213H32.2115V18.4844H32.5747V18.1213ZM32.5747 5.29142V4.92825H32.2115V5.29142H32.5747ZM39.6869 6.11071L39.4301 6.36752L39.4328 6.3702L39.6869 6.11071ZM40.2796 9.98059L40.6154 10.1189V10.1189L40.2796 9.98059ZM39.6172 10.9568L39.862 11.225L39.8626 11.2245L39.6172 10.9568ZM38.7107 11.4623L38.6141 11.1122L37.2824 11.4796L38.6226 11.8146L38.7107 11.4623ZM39.4428 11.7586L39.2689 12.0775L39.2774 12.0821L39.2861 12.0863L39.4428 11.7586ZM40.1924 12.3165L39.9294 12.5669L39.9294 12.5669L40.1924 12.3165ZM40.7502 13.2404L40.4101 13.3679L40.4138 13.377L40.7502 13.2404ZM40.541 16.7093L40.8568 16.8887L40.8585 16.8857L40.541 16.7093ZM39.3034 17.8075L39.4357 18.1458L39.442 18.1432L39.3034 17.8075ZM33.9692 16.8836H33.6061V17.2468H33.9692V16.8836ZM38.5538 16.6744L38.6927 17.01L38.6982 17.0077L38.5538 16.6744ZM39.3557 15.9074L39.0349 15.737L39.033 15.7409L39.3557 15.9074ZM39.3382 13.1183L39.0248 13.302L39.0297 13.3098L39.3382 13.1183ZM38.5189 12.3513L38.348 12.6719L38.3565 12.6761L38.5189 12.3513ZM33.9692 12.0724V11.7093H33.6061V12.0724H33.9692ZM33.9692 10.9742H33.6061V11.3374H33.9692V10.9742ZM38.641 10.3815L38.3726 10.1368L38.3687 10.1412L38.641 10.3815ZM39.1988 8.77779L38.8357 8.76757L38.8357 8.77153L39.1988 8.77779ZM38.6584 7.05204L38.4144 7.32128L38.4234 7.32895L38.6584 7.05204ZM33.9692 6.54651V6.18335H33.6061V6.54651H33.9692ZM32.9378 18.1213V5.29142H32.2115V18.1213H32.9378ZM32.5747 5.65458H37.2116V4.92825H32.5747V5.65458ZM37.2116 5.65458C38.2609 5.65458 38.9767 5.91408 39.4301 6.36751L39.9437 5.85392C39.3047 5.21495 38.3703 4.92825 37.2116 4.92825V5.65458ZM39.4328 6.3702C39.8962 6.82392 40.1604 7.53865 40.1604 8.58604H40.8868C40.8868 7.4254 40.5932 6.48991 39.941 5.85123L39.4328 6.3702ZM40.1604 8.58604C40.1604 9.08468 40.0845 9.50056 39.9438 9.84232L40.6154 10.1189C40.8 9.67037 40.8868 9.15656 40.8868 8.58604H40.1604ZM39.9438 9.84232C39.7987 10.1946 39.6066 10.4738 39.3718 10.6891L39.8626 11.2245C40.1855 10.9284 40.435 10.5568 40.6154 10.1189L39.9438 9.84232ZM39.3723 10.6886C39.1457 10.8954 38.894 11.035 38.6141 11.1122L38.8073 11.8124C39.2015 11.7036 39.554 11.5062 39.862 11.225L39.3723 10.6886ZM38.6226 11.8146C38.8195 11.8638 39.0347 11.9497 39.2689 12.0775L39.6167 11.4398C39.3396 11.2887 39.0667 11.177 38.7988 11.11L38.6226 11.8146ZM39.2861 12.0863C39.5085 12.1926 39.7233 12.3505 39.9294 12.5669L40.4554 12.066C40.1967 11.7943 39.9117 11.5803 39.5995 11.431L39.2861 12.0863ZM39.9294 12.5669C40.1227 12.7699 40.2849 13.0337 40.4102 13.3679L41.0903 13.1128C40.9367 12.7033 40.727 12.3512 40.4554 12.066L39.9294 12.5669ZM40.4138 13.377C40.5431 13.6954 40.6137 14.0884 40.6137 14.5652H41.34C41.34 14.0193 41.2595 13.5291 41.0867 13.1037L40.4138 13.377ZM40.6137 14.5652C40.6137 15.4391 40.4726 16.0847 40.2236 16.5329L40.8585 16.8857C41.1906 16.288 41.34 15.5041 41.34 14.5652H40.6137ZM40.2253 16.5299C39.974 16.9721 39.6232 17.2825 39.1647 17.4718L39.442 18.1432C40.0527 17.8909 40.527 17.4691 40.8568 16.8887L40.2253 16.5299ZM39.171 17.4693C38.6891 17.6579 38.0971 17.7581 37.3859 17.7581V18.4844C38.1622 18.4844 38.8485 18.3755 39.4357 18.1457L39.171 17.4693ZM37.3859 17.7581H32.5747V18.4844H37.3859V17.7581ZM33.9692 17.2468H37.351V16.5204H33.9692V17.2468ZM37.351 17.2468C37.851 17.2468 38.3013 17.1719 38.6927 17.01L38.415 16.3389C38.1322 16.4558 37.7808 16.5204 37.351 16.5204V17.2468ZM38.6982 17.0077C39.1291 16.8209 39.4568 16.5033 39.6784 16.074L39.033 15.7409C38.8827 16.032 38.6758 16.2258 38.4094 16.3412L38.6982 17.0077ZM39.6764 16.0778C39.9137 15.6311 40.0152 15.04 40.0152 14.3386H39.2889C39.2889 14.9852 39.1928 15.44 39.035 15.737L39.6764 16.0778ZM40.0152 14.3386C40.0152 13.8081 39.8983 13.332 39.6468 12.9268L39.0297 13.3098C39.1966 13.5787 39.2889 13.9161 39.2889 14.3386H40.0152ZM39.6515 12.9347C39.4185 12.5371 39.093 12.2323 38.6814 12.0265L38.3565 12.6761C38.6421 12.8189 38.8629 13.0255 39.0249 13.302L39.6515 12.9347ZM38.6898 12.0309C38.2841 11.8145 37.8352 11.7093 37.351 11.7093V12.4356C37.7268 12.4356 38.0566 12.5163 38.348 12.6718L38.6898 12.0309ZM37.351 11.7093H33.9692V12.4356H37.351V11.7093ZM33.6061 12.0724V16.8836H34.3324V12.0724H33.6061ZM33.9692 11.3374H37.2987V10.611H33.9692V11.3374ZM37.2987 11.3374C37.9448 11.3374 38.4929 11.0983 38.9133 10.6218L38.3687 10.1412C38.0918 10.455 37.7451 10.611 37.2987 10.611V11.3374ZM38.9093 10.6262C39.3434 10.1501 39.5492 9.52263 39.5619 8.78405L38.8357 8.77153C38.8252 9.38102 38.659 9.8227 38.3726 10.1368L38.9093 10.6262ZM39.5618 8.78802C39.5862 7.92241 39.4026 7.2072 38.8934 6.77512L38.4234 7.32895C38.6812 7.54766 38.8579 7.98295 38.8358 8.76757L39.5618 8.78802ZM38.9023 6.78294C38.4518 6.3747 37.8771 6.18335 37.2116 6.18335V6.90968C37.7314 6.90968 38.1212 7.05534 38.4145 7.32114L38.9023 6.78294ZM37.2116 6.18335H33.9692V6.90968H37.2116V6.18335ZM33.6061 6.54651V10.9742H34.3324V6.54651H33.6061ZM45.7974 18.191V18.5542L45.8048 18.5541L45.7974 18.191ZM44.9084 18.1213L44.8422 18.4786L44.8552 18.4805L44.9084 18.1213ZM44.0194 17.7901L44.2024 17.4764H44.2024L44.0194 17.7901ZM43.3395 17.0579L43.0169 17.2248L43.0194 17.2294L43.3395 17.0579ZM43.2872 6.63367L42.9558 6.4851L42.9534 6.49061L43.2872 6.63367ZM43.8799 5.84924L44.1001 6.13823L44.1084 6.1315L43.8799 5.84924ZM44.6992 5.43087L44.7937 5.78177L44.806 5.77798L44.6992 5.43087ZM45.6057 5.29142L45.6115 4.92825H45.6057V5.29142ZM47.6103 5.34371L47.5967 5.70668L47.6035 5.70681L47.6103 5.34371ZM49.3535 5.39601L49.3381 5.75893L49.346 5.75909L49.3535 5.39601ZM50.9747 5.4483H51.3379V5.10092L50.9908 5.0855L50.9747 5.4483ZM50.9747 6.56394V6.92711H51.3379V6.56394H50.9747ZM44.8735 6.93001L45.1184 7.1982L45.1184 7.1982L44.8735 6.93001ZM44.4726 11.1311H44.1094V11.4888L44.4671 11.4942L44.4726 11.1311ZM50.2077 11.2183H50.5709V10.8606L50.2132 10.8551L50.2077 11.2183ZM50.2077 12.2816L50.2132 12.6447L50.5709 12.6393V12.2816H50.2077ZM44.4726 12.3688L44.4671 12.0056L44.1094 12.0111V12.3688H44.4726ZM44.6818 16.3607L44.3745 16.5547L44.3821 16.5657L44.6818 16.3607ZM45.2745 16.7965L45.3742 16.4473H45.3742L45.2745 16.7965ZM50.9747 16.901H51.3379V16.5379H50.9747V16.901ZM50.9747 18.0167L50.9983 18.3791L51.3379 18.3569V18.0167H50.9747ZM49.2838 18.1038L49.2696 17.741L49.2693 17.741L49.2838 18.1038ZM47.5232 18.1561L47.5161 17.793L47.5159 17.793L47.5232 18.1561ZM45.7974 17.8278C45.5386 17.8278 45.2601 17.8063 44.9616 17.762L44.8552 18.4805C45.1842 18.5293 45.4985 18.5542 45.7974 18.5542V17.8278ZM44.9745 17.7642C44.7024 17.7138 44.4456 17.6182 44.2024 17.4764L43.8364 18.1038C44.151 18.2873 44.4868 18.4125 44.8423 18.4784L44.9745 17.7642ZM44.2024 17.4764C43.9894 17.3521 43.8069 17.1613 43.6597 16.8864L43.0194 17.2294C43.2208 17.6053 43.4916 17.9026 43.8364 18.1038L44.2024 17.4764ZM43.6621 16.8911C43.5245 16.625 43.4412 16.2363 43.4412 15.6982H42.7149C42.7149 16.2991 42.806 16.8168 43.017 17.2248L43.6621 16.8911ZM43.4412 15.6982V7.87133H42.7149V15.6982H43.4412ZM43.4412 7.87133C43.4412 7.40202 43.5072 7.04237 43.621 6.77673L42.9534 6.49061C42.7884 6.87576 42.7149 7.34122 42.7149 7.87133H43.4412ZM43.6186 6.78222C43.7499 6.48932 43.9131 6.28051 44.1 6.13811L43.6598 5.56036C43.3586 5.78984 43.1267 6.10399 42.9559 6.48512L43.6186 6.78222ZM44.1084 6.1315C44.3132 5.96575 44.5406 5.84966 44.7936 5.78155L44.6048 5.08019C44.2535 5.17478 43.9348 5.3376 43.6514 5.56697L44.1084 6.1315ZM44.806 5.77798C45.0752 5.69516 45.3414 5.65458 45.6057 5.65458V4.92825C45.2657 4.92825 44.9276 4.98064 44.5924 5.08377L44.806 5.77798ZM45.5998 5.65453C46.3182 5.66612 46.9837 5.68349 47.5967 5.70662L47.624 4.98081C47.0051 4.95745 46.3342 4.93996 45.6115 4.9283L45.5998 5.65453ZM47.6035 5.70681C48.2169 5.71838 48.7951 5.73574 49.3381 5.75884L49.369 5.03317C48.8196 5.00979 48.2356 4.99228 47.6172 4.98061L47.6035 5.70681ZM49.346 5.75909C49.9011 5.77066 50.4387 5.788 50.9586 5.81111L50.9908 5.0855C50.4648 5.06212 49.9216 5.0446 49.3611 5.03292L49.346 5.75909ZM50.6115 5.4483V6.56394H51.3379V5.4483H50.6115ZM50.9747 6.20078H45.9543V6.92711H50.9747V6.20078ZM45.9543 6.20078C45.4343 6.20078 44.9786 6.34233 44.6287 6.66182L45.1184 7.1982C45.3031 7.0296 45.5679 6.92711 45.9543 6.92711V6.20078ZM44.6287 6.66182C44.2561 7.00197 44.1094 7.51042 44.1094 8.09795H44.8358C44.8358 7.61632 44.9564 7.34615 45.1184 7.1982L44.6287 6.66182ZM44.1094 8.09795V11.1311H44.8358V8.09795H44.1094ZM44.4671 11.4942L50.2022 11.5814L50.2132 10.8551L44.4781 10.768L44.4671 11.4942ZM49.8445 11.2183V12.2816H50.5709V11.2183H49.8445ZM50.2022 11.9185L44.4671 12.0056L44.4781 12.7319L50.2132 12.6447L50.2022 11.9185ZM44.1094 12.3688V15.3845H44.8358V12.3688H44.1094ZM44.1094 15.3845C44.1094 15.8432 44.182 16.2494 44.3747 16.5546L44.9888 16.1667C44.9027 16.0303 44.8358 15.7857 44.8358 15.3845H44.1094ZM44.3821 16.5657C44.5782 16.8523 44.8446 17.0513 45.1747 17.1456L45.3742 16.4473C45.2163 16.4021 45.0876 16.3106 44.9815 16.1556L44.3821 16.5657ZM45.1747 17.1456C45.4514 17.2247 45.7349 17.2642 46.024 17.2642V16.5379C45.8019 16.5379 45.5856 16.5077 45.3742 16.4473L45.1747 17.1456ZM46.024 17.2642H50.9747V16.5379H46.024V17.2642ZM50.6115 16.901V18.0167H51.3379V16.901H50.6115ZM50.9511 17.6543C50.4199 17.6889 49.8595 17.7178 49.2696 17.741L49.298 18.4667C49.8935 18.4434 50.4603 18.4142 50.9983 18.3791L50.9511 17.6543ZM49.2693 17.741C48.6907 17.7641 48.1063 17.7815 47.5161 17.793L47.5303 18.5192C48.1254 18.5076 48.7148 18.4901 49.2983 18.4667L49.2693 17.741ZM47.5159 17.793C46.9348 17.8047 46.3595 17.8163 45.79 17.8279L45.8048 18.5541C46.3742 18.5425 46.9494 18.5309 47.5305 18.5192L47.5159 17.793ZM55.8582 18.191V18.5542L55.8656 18.5541L55.8582 18.191ZM54.9692 18.1213L54.903 18.4786L54.916 18.4805L54.9692 18.1213ZM54.0802 17.7901L54.2632 17.4764L54.0802 17.7901ZM53.4003 17.0579L53.0777 17.2248L53.0802 17.2294L53.4003 17.0579ZM53.348 6.63367L53.0166 6.4851L53.0142 6.49061L53.348 6.63367ZM53.9407 5.84924L54.1609 6.13823L54.1692 6.1315L53.9407 5.84924ZM54.76 5.43087L54.8545 5.78177L54.8668 5.77798L54.76 5.43087ZM55.6665 5.29142L55.6723 4.92825H55.6665V5.29142ZM57.6711 5.34371L57.6574 5.70668L57.6643 5.70681L57.6711 5.34371ZM59.4143 5.39601L59.3989 5.75893L59.4068 5.75909L59.4143 5.39601ZM61.0355 5.4483H61.3986V5.10092L61.0516 5.0855L61.0355 5.4483ZM61.0355 6.56394V6.92711H61.3986V6.56394H61.0355ZM54.9343 6.93001L55.1792 7.1982V7.1982L54.9343 6.93001ZM54.5334 11.1311H54.1702V11.4888L54.5279 11.4942L54.5334 11.1311ZM60.2685 11.2183H60.6316V10.8606L60.274 10.8551L60.2685 11.2183ZM60.2685 12.2816L60.274 12.6447L60.6316 12.6393V12.2816H60.2685ZM54.5334 12.3688L54.5279 12.0056L54.1702 12.0111V12.3688H54.5334ZM54.7426 16.3607L54.4353 16.5547L54.4429 16.5657L54.7426 16.3607ZM55.3353 16.7965L55.435 16.4473L55.3353 16.7965ZM61.0355 16.901H61.3986V16.5379H61.0355V16.901ZM61.0355 18.0167L61.0591 18.3791L61.3986 18.3569V18.0167H61.0355ZM59.3446 18.1038L59.3304 17.741L59.3301 17.741L59.3446 18.1038ZM57.584 18.1561L57.5769 17.793L57.5767 17.793L57.584 18.1561ZM55.8582 17.8278C55.5993 17.8278 55.3209 17.8063 55.0224 17.762L54.916 18.4805C55.245 18.5293 55.5593 18.5542 55.8582 18.5542V17.8278ZM55.0353 17.7642C54.7632 17.7138 54.5063 17.6182 54.2632 17.4764L53.8972 18.1038C54.2118 18.2873 54.5476 18.4125 54.9031 18.4784L55.0353 17.7642ZM54.2632 17.4764C54.0501 17.3521 53.8677 17.1613 53.7204 16.8864L53.0802 17.2294C53.2816 17.6053 53.5524 17.9026 53.8972 18.1038L54.2632 17.4764ZM53.7229 16.8911C53.5853 16.625 53.502 16.2363 53.502 15.6982H52.7757C52.7757 16.2991 52.8667 16.8168 53.0778 17.2248L53.7229 16.8911ZM53.502 15.6982V7.87133H52.7757V15.6982H53.502ZM53.502 7.87133C53.502 7.40202 53.568 7.04237 53.6818 6.77673L53.0142 6.49061C52.8492 6.87576 52.7757 7.34122 52.7757 7.87133H53.502ZM53.6794 6.78222C53.8107 6.48932 53.9739 6.28051 54.1608 6.13811L53.7206 5.56036C53.4194 5.78984 53.1875 6.10399 53.0166 6.48512L53.6794 6.78222ZM54.1692 6.1315C54.374 5.96575 54.6014 5.84966 54.8544 5.78155L54.6656 5.08019C54.3143 5.17478 53.9955 5.3376 53.7122 5.56697L54.1692 6.1315ZM54.8668 5.77798C55.136 5.69516 55.4022 5.65458 55.6665 5.65458V4.92825C55.3265 4.92825 54.9883 4.98064 54.6532 5.08377L54.8668 5.77798ZM55.6606 5.65453C56.3789 5.66612 57.0445 5.68349 57.6574 5.70662L57.6848 4.98081C57.0659 4.95745 56.395 4.93996 55.6723 4.9283L55.6606 5.65453ZM57.6643 5.70681C58.2777 5.71838 58.8559 5.73574 59.3989 5.75884L59.4298 5.03317C58.8804 5.00979 58.2964 4.99228 57.678 4.98061L57.6643 5.70681ZM59.4068 5.75909C59.9619 5.77066 60.4994 5.788 61.0194 5.81111L61.0516 5.0855C60.5256 5.06212 59.9824 5.0446 59.4219 5.03292L59.4068 5.75909ZM60.6723 5.4483V6.56394H61.3986V5.4483H60.6723ZM61.0355 6.20078H56.0151V6.92711H61.0355V6.20078ZM56.0151 6.20078C55.4951 6.20078 55.0394 6.34233 54.6895 6.66182L55.1792 7.1982C55.3639 7.0296 55.6287 6.92711 56.0151 6.92711V6.20078ZM54.6895 6.66182C54.3169 7.00197 54.1702 7.51042 54.1702 8.09795H54.8966C54.8966 7.61632 55.0172 7.34615 55.1792 7.1982L54.6895 6.66182ZM54.1702 8.09795V11.1311H54.8966V8.09795H54.1702ZM54.5279 11.4942L60.263 11.5814L60.274 10.8551L54.5389 10.768L54.5279 11.4942ZM59.9053 11.2183V12.2816H60.6316V11.2183H59.9053ZM60.263 11.9185L54.5279 12.0056L54.5389 12.7319L60.274 12.6447L60.263 11.9185ZM54.1702 12.3688V15.3845H54.8966V12.3688H54.1702ZM54.1702 15.3845C54.1702 15.8432 54.2427 16.2494 54.4355 16.5546L55.0496 16.1667C54.9635 16.0303 54.8966 15.7857 54.8966 15.3845H54.1702ZM54.4429 16.5657C54.6389 16.8523 54.9054 17.0513 55.2355 17.1456L55.435 16.4473C55.277 16.4021 55.1484 16.3106 55.0423 16.1556L54.4429 16.5657ZM55.2355 17.1456C55.5122 17.2247 55.7957 17.2642 56.0848 17.2642V16.5379C55.8627 16.5379 55.6464 16.5077 55.435 16.4473L55.2355 17.1456ZM56.0848 17.2642H61.0355V16.5379H56.0848V17.2642ZM60.6723 16.901V18.0167H61.3986V16.901H60.6723ZM61.0118 17.6543C60.4807 17.6889 59.9202 17.7178 59.3304 17.741L59.3588 18.4667C59.9543 18.4434 60.5211 18.4142 61.0591 18.3791L61.0118 17.6543ZM59.3301 17.741C58.7515 17.7641 58.1671 17.7815 57.5769 17.793L57.5911 18.5192C58.1862 18.5076 58.7755 18.4901 59.3591 18.4667L59.3301 17.741ZM57.5767 17.793C56.9956 17.8047 56.4203 17.8163 55.8508 17.8279L55.8656 18.5541C56.435 18.5425 57.0102 18.5309 57.5912 18.5192L57.5767 17.793ZM62.6203 18.1213L62.2767 18.0036L62.1121 18.4844H62.6203V18.1213ZM67.0131 5.29142V4.92825H66.7536L66.6695 5.17378L67.0131 5.29142ZM68.7912 5.29142L69.1348 5.17378L69.0507 4.92825H68.7912V5.29142ZM73.184 18.1213V18.4844H73.6922L73.5276 18.0036L73.184 18.1213ZM71.7546 18.1213L71.4121 18.242L71.4975 18.4844H71.7546V18.1213ZM70.4646 14.4606L70.8071 14.3399L70.7217 14.0974H70.4646V14.4606ZM65.3048 14.4606V14.0974H65.0454L64.9613 14.3428L65.3048 14.4606ZM64.0497 18.1213V18.4844H64.3091L64.3932 18.2391L64.0497 18.1213ZM65.6534 13.2055L65.3092 13.0898L65.1483 13.5687H65.6534V13.2055ZM70.116 13.2055V13.5687H70.6186L70.4608 13.0915L70.116 13.2055ZM67.9021 6.51165L68.2469 6.39761L67.9048 5.36322L67.5579 6.396L67.9021 6.51165ZM62.9639 18.2389L67.3567 5.40906L66.6695 5.17378L62.2767 18.0036L62.9639 18.2389ZM67.0131 5.65458H68.7912V4.92825H67.0131V5.65458ZM68.4476 5.40906L72.8404 18.2389L73.5276 18.0036L69.1348 5.17378L68.4476 5.40906ZM73.184 17.7581H71.7546V18.4844H73.184V17.7581ZM72.0971 18.0006L70.8071 14.3399L70.1221 14.5813L71.4121 18.242L72.0971 18.0006ZM70.4646 14.0974H65.3048V14.8237H70.4646V14.0974ZM64.9613 14.3428L63.7062 18.0035L64.3932 18.2391L65.6483 14.5784L64.9613 14.3428ZM64.0497 17.7581H62.6203V18.4844H64.0497V17.7581ZM65.6534 13.5687H70.116V12.8423H65.6534V13.5687ZM70.4608 13.0915L68.2469 6.39761L67.5573 6.62568L69.7712 13.3195L70.4608 13.0915ZM67.5579 6.396L65.3092 13.0898L65.9977 13.3211L68.2464 6.6273L67.5579 6.396ZM77.8353 18.191L77.8587 17.8284L77.8474 17.828L77.8353 18.191ZM76.7545 18.1213L76.7885 17.7595L76.7772 17.7588L76.7545 18.1213ZM75.6912 18.0341L75.6525 18.3952L75.6538 18.3954L75.6912 18.0341ZM74.8719 17.9121H74.5087V18.2068L74.7971 18.2675L74.8719 17.9121ZM74.8719 16.8488L74.9009 16.4867L74.5087 16.4554V16.8488H74.8719ZM75.9352 16.9185L75.9554 16.5559V16.5559L75.9352 16.9185ZM77.2775 16.9708L77.2686 17.3338L77.2689 17.3338L77.2775 16.9708ZM80.1189 16.8313L80.207 17.1836L80.1189 16.8313ZM81.1125 16.2561L80.8447 16.0106L80.8392 16.0169L81.1125 16.2561ZM81.0428 12.8394L80.7811 13.0914L80.786 13.0962L81.0428 12.8394ZM75.7086 11.6715L75.4845 11.9573L75.4872 11.9593L75.7086 11.6715ZM75.7958 5.95383L76.0202 6.23939V6.23939L75.7958 5.95383ZM79.8051 5.25655L79.769 5.61803L79.778 5.6187L79.8051 5.25655ZM81.1474 5.39601L81.0987 5.75606L81.1094 5.75718L81.1474 5.39601ZM82.2456 5.55289H82.6087V5.25517L82.3168 5.19678L82.2456 5.55289ZM82.2456 6.61624L82.2127 6.97791L82.6087 7.01392V6.61624H82.2456ZM80.5024 6.49422L80.4826 6.85684L80.483 6.85686L80.5024 6.49422ZM77.3298 6.63367L77.4352 6.98136L77.4446 6.9782L77.3298 6.63367ZM76.4408 7.27865L76.1386 7.07719L76.1368 7.07991L76.4408 7.27865ZM76.7022 10.643L76.9142 10.3481L76.7022 10.643ZM81.4786 11.4274L81.3001 11.7437L81.4786 11.4274ZM82.4896 12.4908L82.1631 12.6498L82.1648 12.6532L82.4896 12.4908ZM82.263 17.0056L81.9794 16.7787L81.976 16.7832L82.263 17.0056ZM80.7987 17.9644L80.6998 17.6149L80.6981 17.6155L80.7987 17.9644ZM78.7592 17.8627C78.5138 17.8627 78.2141 17.8515 77.8587 17.8286L77.8119 18.5534C78.1771 18.577 78.4933 18.589 78.7592 18.589V17.8627ZM77.8474 17.828C77.5065 17.8167 77.1536 17.7939 76.7884 17.7597L76.7206 18.4829C77.0993 18.5184 77.4668 18.5421 77.8232 18.554L77.8474 17.828ZM76.7772 17.7588C76.4097 17.7359 76.0602 17.7072 75.7286 17.6729L75.6538 18.3954C75.9962 18.4308 76.3556 18.4602 76.7319 18.4837L76.7772 17.7588ZM75.7299 17.673C75.4117 17.6389 75.1516 17.5999 74.9467 17.5567L74.7971 18.2675C75.0338 18.3173 75.3199 18.3596 75.6525 18.3952L75.7299 17.673ZM75.2351 17.9121V16.8488H74.5087V17.9121H75.2351ZM74.8429 17.2108C75.1374 17.2343 75.4949 17.2577 75.9151 17.2811L75.9554 16.5559C75.5388 16.5327 75.1875 16.5097 74.9009 16.4867L74.8429 17.2108ZM75.9151 17.2811C76.3377 17.3046 76.7889 17.3221 77.2686 17.3338L77.2864 16.6077C76.8131 16.5962 76.3695 16.5789 75.9554 16.5559L75.9151 17.2811ZM77.2689 17.3338C77.7597 17.3455 78.239 17.3514 78.7069 17.3514V16.625C78.2451 16.625 77.7715 16.6193 77.2861 16.6077L77.2689 17.3338ZM78.7069 17.3514C79.2535 17.3514 79.7545 17.2968 80.207 17.1836L80.0308 16.479C79.6466 16.5751 79.2062 16.625 78.7069 16.625V17.3514ZM80.207 17.1836C80.6851 17.0641 81.0854 16.8385 81.3858 16.4952L80.8392 16.0169C80.6515 16.2314 80.3894 16.3893 80.0308 16.479L80.207 17.1836ZM81.3802 16.5015C81.7174 16.1336 81.8592 15.6321 81.8592 15.0533H81.1328C81.1328 15.5203 81.019 15.8207 80.8448 16.0107L81.3802 16.5015ZM81.8592 15.0533V14.1817H81.1328V15.0533H81.8592ZM81.8592 14.1817C81.8592 13.5306 81.6927 12.9757 81.2996 12.5826L80.786 13.0962C80.9972 13.3074 81.1328 13.6473 81.1328 14.1817H81.8592ZM81.3044 12.5875C80.9041 12.1719 80.2982 12.0056 79.5785 12.0056V12.7319C80.2069 12.7319 80.5771 12.8794 80.7812 13.0913L81.3044 12.5875ZM79.5785 12.0056H78.2014V12.7319H79.5785V12.0056ZM78.2014 12.0056C77.1935 12.0056 76.4504 11.7839 75.9301 11.3836L75.4872 11.9593C76.1755 12.4888 77.0942 12.7319 78.2014 12.7319V12.0056ZM75.9328 11.3857C75.4654 11.0192 75.1828 10.3518 75.1828 9.26588H74.4564C74.4564 10.4578 74.7665 11.3941 75.4845 11.9572L75.9328 11.3857ZM75.1828 9.26588V8.53375H74.4564V9.26588H75.1828ZM75.1828 8.53375C75.1828 7.38327 75.4918 6.65456 76.0202 6.23939L75.5714 5.66827C74.7982 6.27576 74.4564 7.267 74.4564 8.53375H75.1828ZM76.0202 6.23939C76.5844 5.79602 77.4118 5.54999 78.55 5.54999V4.82366C77.3175 4.82366 76.3087 5.08896 75.5714 5.66827L76.0202 6.23939ZM78.55 5.54999C78.9072 5.54999 79.3133 5.57234 79.769 5.61791L79.8413 4.89519C79.3673 4.84779 78.9366 4.82366 78.55 4.82366V5.54999ZM79.778 5.6187C80.2362 5.65306 80.6764 5.69883 81.0987 5.7559L81.196 5.03611C80.7584 4.97698 80.3038 4.92977 79.8323 4.89441L79.778 5.6187ZM81.1094 5.75718C81.5447 5.803 81.8988 5.85389 82.1744 5.90901L82.3168 5.19678C82.0113 5.13569 81.6332 5.08198 81.1854 5.03484L81.1094 5.75718ZM81.8824 5.55289V6.61624H82.6087V5.55289H81.8824ZM82.2785 6.25457C81.7616 6.20758 81.176 6.16662 80.5218 6.13157L80.483 6.85686C81.1304 6.89154 81.7068 6.93192 82.2127 6.97791L82.2785 6.25457ZM80.5222 6.13159C79.8772 6.09641 79.2663 6.07876 78.6895 6.07876V6.80508C79.2516 6.80508 79.8492 6.82229 80.4826 6.85684L80.5222 6.13159ZM78.6895 6.07876C78.1383 6.07876 77.6445 6.14595 77.215 6.28914L77.4446 6.9782C77.7821 6.86572 78.1947 6.80508 78.6895 6.80508V6.07876ZM77.2245 6.28611C76.7658 6.42509 76.3975 6.68879 76.1386 7.0772L76.7429 7.4801C76.9024 7.24096 77.1267 7.07467 77.4351 6.98123L77.2245 6.28611ZM76.1368 7.07991C75.8843 7.46615 75.7813 7.98341 75.7813 8.58604H76.5076C76.5076 8.04979 76.6021 7.69545 76.7447 7.47739L76.1368 7.07991ZM75.7813 8.58604V9.17872H76.5076V8.58604H75.7813ZM75.7813 9.17872C75.7813 9.93849 75.9802 10.5713 76.4903 10.9379L76.9142 10.3481C76.6805 10.1801 76.5076 9.83675 76.5076 9.17872H75.7813ZM76.4903 10.9379C76.946 11.2654 77.5478 11.4071 78.2537 11.4071V10.6808C77.6348 10.6808 77.2023 10.5552 76.9142 10.3481L76.4903 10.9379ZM78.2537 11.4071H79.7354V10.6808H78.2537V11.4071ZM79.7354 11.4071C80.4035 11.4071 80.9176 11.5279 81.3001 11.7437L81.657 11.1111C81.1331 10.8156 80.4851 10.6808 79.7354 10.6808V11.4071ZM81.3001 11.7437C81.6914 11.9645 81.9757 12.2651 82.1631 12.6498L82.8161 12.3317C82.562 11.81 82.1722 11.4017 81.657 11.1111L81.3001 11.7437ZM82.1648 12.6532C82.3563 13.0362 82.4577 13.4902 82.4577 14.0248H83.184C83.184 13.3973 83.0646 12.8286 82.8144 12.3284L82.1648 12.6532ZM82.4577 14.0248V15.0184H83.184V14.0248H82.4577ZM82.4577 15.0184C82.4577 15.8316 82.2812 16.4015 81.9794 16.7788L82.5466 17.2325C82.9885 16.6801 83.184 15.9252 83.184 15.0184H82.4577ZM81.976 16.7832C81.6675 17.1812 81.2481 17.4598 80.6998 17.615L80.8976 18.3138C81.5813 18.1204 82.138 17.7598 82.5501 17.2281L81.976 16.7832ZM80.6981 17.6155C80.1323 17.7787 79.4871 17.8627 78.7592 17.8627V18.589C79.542 18.589 80.2566 18.4988 80.8994 18.3133L80.6981 17.6155ZM88.5407 18.1213H88.1775V18.4844H88.5407V18.1213ZM88.5407 13.8679H88.9038V13.7859L88.8686 13.7119L88.5407 13.8679ZM84.4616 5.29142V4.92825H83.8867L84.1336 5.4474L84.4616 5.29142ZM85.9085 5.29142L86.2376 5.13801L86.1399 4.92825H85.9085V5.29142ZM89.2554 12.4733L88.9262 12.6268L89.2554 13.3331L89.5845 12.6268L89.2554 12.4733ZM92.6023 5.29142V4.92825H92.3709L92.2731 5.13801L92.6023 5.29142ZM93.9968 5.29142L94.3251 5.44685L94.5707 4.92825H93.9968V5.29142ZM89.9352 13.8679L89.607 13.7125L89.5721 13.7863V13.8679H89.9352ZM89.9352 18.1213V18.4844H90.2984V18.1213H89.9352ZM88.9038 18.1213V13.8679H88.1775V18.1213H88.9038ZM88.8686 13.7119L84.7896 5.13543L84.1336 5.4474L88.2127 14.0239L88.8686 13.7119ZM84.4616 5.65458H85.9085V4.92825H84.4616V5.65458ZM85.5793 5.44482L88.9262 12.6268L89.5845 12.3199L86.2376 5.13801L85.5793 5.44482ZM89.5845 12.6268L92.9315 5.44482L92.2731 5.13801L88.9262 12.3199L89.5845 12.6268ZM92.6023 5.65458H93.9968V4.92825H92.6023V5.65458ZM93.6686 5.13598L89.607 13.7125L90.2634 14.0233L94.3251 5.44685L93.6686 5.13598ZM89.5721 13.8679V18.1213H90.2984V13.8679H89.5721ZM89.9352 17.7581H88.5407V18.4844H89.9352V17.7581Z" fill="#FFF301" mask="url(#path-2-outside-1_3374_2011)"/>
</svg>
