<svg width="28" height="22" viewBox="0 0 28 22" fill="none" xmlns="http://www.w3.org/2000/svg">
<g id="Master" clip-path="url(#clip0_3374_2964)">
<path id="Vector" d="M5.85127 21.8454V20.4514C5.85127 19.917 5.526 19.5685 4.9684 19.5685C4.6896 19.5685 4.38756 19.6615 4.17846 19.9635C4.01583 19.7079 3.78349 19.5685 3.43499 19.5685C3.08649 19.5685 2.97032 19.6382 2.78445 19.8938V19.615H2.29655V21.8454H2.78445V20.6141C2.78445 20.2191 2.99356 20.0332 3.31882 20.0332C3.64409 20.0332 3.80673 20.2423 3.80673 20.6141V21.8454H4.29463V20.6141C4.29463 20.2191 4.52696 20.0332 4.829 20.0332C5.13103 20.0332 5.3169 20.2423 5.3169 20.6141V21.8454H5.8048H5.85127ZM13.0769 19.615H12.2869V18.9412H11.799V19.615H11.3576V20.0564H11.799V21.0787C11.799 21.5899 12.0081 21.8919 12.5657 21.8919C13.1233 21.8919 13.0072 21.8222 13.1698 21.7293L13.0304 21.3111C12.891 21.404 12.7284 21.4272 12.6122 21.4272C12.3799 21.4272 12.2869 21.2878 12.2869 21.0555V20.0564H13.0769V19.615ZM17.1892 19.5685C16.9104 19.5685 16.7245 19.7079 16.6083 19.8938V19.615H16.1204V21.8454H16.6083V20.5908C16.6083 20.2191 16.771 20.01 17.073 20.01C17.375 20.01 17.2821 20.01 17.375 20.0564L17.5144 19.5918C17.3983 19.5453 17.2589 19.5221 17.1659 19.5221L17.1892 19.5685ZM10.9626 19.8009C10.7303 19.6382 10.405 19.5685 10.0565 19.5685C9.49891 19.5685 9.12718 19.8473 9.12718 20.2888C9.12718 20.7302 9.40598 20.8696 9.89388 20.9393H10.1262C10.3818 21.009 10.5212 21.0787 10.5212 21.1949C10.5212 21.3111 10.3353 21.4737 10.01 21.4737C9.68478 21.4737 9.42921 21.3575 9.26658 21.2414L9.03425 21.6131C9.28981 21.799 9.63831 21.8919 9.98682 21.8919C10.6374 21.8919 11.0091 21.5899 11.0091 21.1717C11.0091 20.7535 10.7071 20.5676 10.2424 20.4979H10.01C9.80095 20.4282 9.63831 20.405 9.63831 20.2423C9.63831 20.0797 9.80095 19.9867 10.0565 19.9867C10.3121 19.9867 10.6141 20.1029 10.7535 20.1726L10.9626 19.7776V19.8009ZM23.9036 19.5685C23.6248 19.5685 23.439 19.7079 23.3228 19.8938V19.615H22.8349V21.8454H23.3228V20.5908C23.3228 20.2191 23.4854 20.01 23.7875 20.01C24.0895 20.01 23.9966 20.01 24.0895 20.0564L24.2289 19.5918C24.1127 19.5453 23.9733 19.5221 23.8804 19.5221L23.9036 19.5685ZM17.6771 20.7302C17.6771 21.404 18.1417 21.8919 18.862 21.8919C19.5822 21.8919 19.4196 21.8222 19.6519 21.6363L19.4196 21.2414C19.2337 21.3808 19.0478 21.4505 18.8387 21.4505C18.4438 21.4505 18.165 21.1717 18.165 20.7302C18.165 20.2888 18.4438 20.0332 18.8387 20.01C19.0478 20.01 19.2337 20.0797 19.4196 20.2191L19.6519 19.8241C19.4196 19.6382 19.1873 19.5685 18.862 19.5685C18.1417 19.5685 17.6771 20.0564 17.6771 20.7302ZM22.2076 20.7302V19.615H21.7197V19.8938C21.5571 19.6847 21.3247 19.5685 21.0227 19.5685C20.3954 19.5685 19.9075 20.0564 19.9075 20.7302C19.9075 21.404 20.3954 21.8919 21.0227 21.8919C21.65 21.8919 21.5803 21.7757 21.7197 21.5666V21.8454H22.2076V20.7302ZM20.4186 20.7302C20.4186 20.3353 20.6742 20.01 21.0924 20.01C21.5106 20.01 21.7662 20.312 21.7662 20.7302C21.7662 21.1484 21.4874 21.4505 21.0924 21.4505C20.6974 21.4505 20.4186 21.1252 20.4186 20.7302ZM14.587 19.5685C13.9365 19.5685 13.4718 20.0332 13.4718 20.7302C13.4718 21.4272 13.9365 21.8919 14.6103 21.8919C15.284 21.8919 15.2608 21.799 15.5164 21.5899L15.284 21.2414C15.0982 21.3808 14.8658 21.4737 14.6335 21.4737C14.4012 21.4737 14.0294 21.3343 13.9597 20.9393H15.6093C15.6093 20.8696 15.6093 20.8232 15.6093 20.7535C15.6093 20.0564 15.1679 19.5918 14.5638 19.5918L14.587 19.5685ZM14.587 20.01C14.8891 20.01 15.0982 20.1959 15.1446 20.5444H13.983C14.0294 20.2191 14.2385 20.01 14.5638 20.01H14.587ZM26.7149 20.7535V18.7554H26.227V19.917C26.0643 19.7079 25.832 19.5918 25.53 19.5918C24.9027 19.5918 24.4148 20.0797 24.4148 20.7535C24.4148 21.4272 24.9027 21.9151 25.53 21.9151C26.1573 21.9151 26.0876 21.799 26.227 21.5899V21.8687H26.7149V20.7535ZM24.9259 20.7535C24.9259 20.3585 25.1815 20.0332 25.5997 20.0332C26.0179 20.0332 26.2734 20.3353 26.2734 20.7535C26.2734 21.1717 25.9946 21.4737 25.5997 21.4737C25.2047 21.4737 24.9259 21.1484 24.9259 20.7535ZM8.61604 20.7535V19.6382H8.12814V19.917C7.96551 19.7079 7.73317 19.5918 7.43114 19.5918C6.80384 19.5918 6.31594 20.0797 6.31594 20.7535C6.31594 21.4272 6.80384 21.9151 7.43114 21.9151C8.05844 21.9151 7.98874 21.799 8.12814 21.5899V21.8687H8.61604V20.7535ZM6.82707 20.7535C6.82707 20.3585 7.08264 20.0332 7.50084 20.0332C7.91904 20.0332 8.17461 20.3353 8.17461 20.7535C8.17461 21.1717 7.89581 21.4737 7.50084 21.4737C7.10587 21.4737 6.82707 21.1484 6.82707 20.7535ZM27.5513 21.5434C27.5745 21.5434 27.621 21.5434 27.6442 21.5434C27.6674 21.5434 27.6907 21.5666 27.7139 21.5899C27.7139 21.5899 27.7604 21.6363 27.7604 21.6596C27.7604 21.6828 27.7604 21.706 27.7604 21.7525C27.7604 21.799 27.7604 21.8222 27.7604 21.8454C27.7604 21.8687 27.7372 21.8919 27.7139 21.9151C27.7139 21.9151 27.6674 21.9616 27.6442 21.9616C27.621 21.9616 27.5977 21.9616 27.5513 21.9616C27.5048 21.9616 27.4816 21.9616 27.4583 21.9616C27.4351 21.9616 27.4119 21.9384 27.3886 21.9151C27.3886 21.9151 27.3422 21.8687 27.3422 21.8454C27.3422 21.8222 27.3422 21.799 27.3422 21.7525C27.3422 21.706 27.3422 21.6828 27.3422 21.6596C27.3422 21.6363 27.3654 21.6131 27.3886 21.5899C27.3886 21.5899 27.4351 21.5434 27.4583 21.5434C27.4816 21.5434 27.5048 21.5434 27.5513 21.5434ZM27.5513 21.9384C27.5745 21.9384 27.5977 21.9384 27.621 21.9384C27.621 21.9384 27.6674 21.9384 27.6674 21.8919C27.6674 21.8919 27.6907 21.8687 27.7139 21.8454C27.7139 21.8454 27.7139 21.799 27.7139 21.7757C27.7139 21.7525 27.7139 21.7293 27.7139 21.706C27.7139 21.706 27.7139 21.6596 27.6674 21.6596C27.6674 21.6596 27.6442 21.6363 27.621 21.6131C27.5977 21.5899 27.5745 21.6131 27.5513 21.6131C27.528 21.6131 27.5048 21.6131 27.4816 21.6131C27.4816 21.6131 27.4351 21.6131 27.4351 21.6596C27.4351 21.6596 27.4119 21.6828 27.3886 21.706C27.3886 21.706 27.3886 21.7525 27.3886 21.7757C27.3886 21.799 27.3886 21.8222 27.3886 21.8454C27.3886 21.8454 27.3886 21.8919 27.4351 21.8919C27.4351 21.8919 27.4583 21.9151 27.4816 21.9384C27.4816 21.9384 27.528 21.9384 27.5513 21.9384ZM27.5513 21.6596C27.5745 21.6596 27.5977 21.6596 27.621 21.6596C27.621 21.6596 27.621 21.6828 27.621 21.706C27.621 21.7293 27.621 21.7293 27.621 21.7525C27.621 21.7525 27.5977 21.7525 27.5745 21.7525L27.6442 21.8222H27.5977L27.528 21.7525V21.8222H27.4816V21.6131H27.5745L27.5513 21.6596ZM27.5048 21.706V21.7525H27.5513C27.5513 21.7525 27.5513 21.7525 27.5745 21.7525C27.5745 21.7525 27.5745 21.7525 27.5513 21.7525H27.5048V21.706ZM27.2492 14.4804V14.2016H27.3654V14.1552H27.0866V14.2016H27.2028V14.4804H27.2725H27.2492ZM27.7836 14.4804V14.1552H27.6907L27.5977 14.3875L27.5048 14.1552H27.4119V14.4804H27.4816V14.2249L27.5745 14.434H27.6442L27.7372 14.2249V14.4804H27.8068H27.7836ZM13.7739 16.1068C13.8436 16.1532 13.9133 16.2229 13.983 16.2694C12.6587 17.1523 11.0556 17.6634 9.35951 17.6634C4.66636 17.6402 0.925781 13.8996 0.925781 9.27614C0.925781 4.65269 4.66636 0.912109 9.28981 0.912109C13.9133 0.912109 12.589 1.42324 13.9133 2.30611C13.8436 2.35258 13.7739 2.42228 13.7042 2.46875C11.7293 4.18802 10.6141 6.65076 10.6141 9.27614C10.6141 11.9015 11.7526 14.3643 13.7042 16.0835L13.7739 16.1068ZM19.6287 0.912109C17.9094 0.912109 16.3295 1.42324 15.0052 2.30611C15.0749 2.35258 15.1446 2.42228 15.2143 2.46875C17.1892 4.18802 18.3044 6.65076 18.3044 9.27614C18.3044 11.9015 17.1659 14.3643 15.2143 16.0835C15.1446 16.13 15.0749 16.1997 15.0052 16.2462C16.3295 17.129 17.9326 17.6402 19.6287 17.6402C24.2521 17.6402 27.9927 13.8996 27.9927 9.27614C27.9927 4.65269 24.2521 0.912109 19.6287 0.912109ZM14.4709 2.70108C14.3547 2.79402 14.2618 2.86372 14.1456 2.95665C12.3799 4.49006 11.2647 6.7437 11.2647 9.27614C11.2647 11.8086 12.3799 14.0622 14.1456 15.5956C14.2385 15.6886 14.3547 15.7815 14.4709 15.8512C14.587 15.7583 14.68 15.6886 14.7961 15.5956C16.5619 14.0622 17.6771 11.8086 17.6771 9.27614C17.6771 6.7437 16.5619 4.49006 14.7961 2.95665C14.7032 2.86372 14.587 2.77078 14.4709 2.70108Z" fill="#1C1A1D"/>
</g>
<defs>
<clipPath id="clip0_3374_2964">
<rect width="27.0669" height="21.0495" fill="white" transform="translate(0.925781 0.912109)"/>
</clipPath>
</defs>
</svg>
