<svg width="48" height="17" viewBox="0 0 48 17" fill="none" xmlns="http://www.w3.org/2000/svg">
<g clip-path="url(#clip0_3374_2936)">
<path d="M19.54 15.7386V6.08489C19.54 5.23202 19.8788 4.41408 20.4819 3.81101C21.085 3.20794 21.9029 2.86914 22.7558 2.86914L25.6058 2.87312C26.4564 2.87483 27.2717 3.21398 27.8725 3.81614C28.4734 4.41829 28.8107 5.23424 28.8106 6.08489V8.13928C28.8106 8.9922 28.4718 9.81019 27.8688 10.4133C27.2657 11.0165 26.4478 11.3554 25.5949 11.3555H21.5666" stroke="#1C1A1D" stroke-width="0.31109" stroke-linecap="round" stroke-linejoin="round"/>
<path d="M29.6084 2.86719H30.8448C31.1949 2.86719 31.5306 3.00625 31.7781 3.25378C32.0256 3.5013 32.1647 3.83702 32.1647 4.18708V11.3978" stroke="#1C1A1D" stroke-width="0.31109" stroke-linecap="round" stroke-linejoin="round"/>
<path d="M31.8993 1.75091L31.3387 1.18986C31.3056 1.15681 31.2794 1.11758 31.2615 1.07439C31.2436 1.0312 31.2344 0.984904 31.2344 0.938153C31.2344 0.891402 31.2436 0.845109 31.2615 0.80192C31.2794 0.758731 31.3056 0.719493 31.3387 0.686449L31.8993 0.125891C31.9662 0.0590376 32.0569 0.0214844 32.1515 0.0214844C32.246 0.0214844 32.3368 0.0590376 32.4037 0.125891L32.9637 0.686449C32.9968 0.719493 33.023 0.758731 33.0409 0.80192C33.0588 0.845109 33.068 0.891402 33.068 0.938153C33.068 0.984904 33.0588 1.0312 33.0409 1.07439C33.023 1.11758 32.9968 1.15681 32.9637 1.18986L32.4012 1.75091C32.3681 1.784 32.3288 1.81025 32.2856 1.82815C32.2423 1.84606 32.196 1.85528 32.1492 1.85528C32.1024 1.85528 32.0561 1.84606 32.0129 1.82815C31.9696 1.81025 31.9304 1.784 31.8973 1.75091" fill="#1C1A1D"/>
<path d="M34.5371 2.86133H35.7631C36.3937 2.86107 36.9986 3.11133 37.4448 3.55706L40.3126 6.42495C40.4009 6.51334 40.5058 6.58347 40.6212 6.63132C40.7366 6.67916 40.8603 6.70379 40.9853 6.70379C41.1102 6.70379 41.2339 6.67916 41.3493 6.63132C41.4647 6.58347 41.5696 6.51334 41.6579 6.42495L44.5153 3.56799C44.7361 3.34726 44.9982 3.1722 45.2867 3.05282C45.5752 2.93344 45.8843 2.87209 46.1965 2.87226H47.1934" stroke="#1C1A1D" stroke-width="0.31109" stroke-linecap="round" stroke-linejoin="round"/>
<path d="M34.5371 11.3342H35.7631C36.3937 11.3344 36.9986 11.0842 37.4448 10.6385L40.3126 7.77062C40.4911 7.59233 40.733 7.49219 40.9853 7.49219C41.2375 7.49219 41.4794 7.59233 41.6579 7.77062L44.5153 10.6281C44.9613 11.0737 45.566 11.324 46.1965 11.3238H47.1934" stroke="#1C1A1D" stroke-width="0.31109" stroke-linecap="round" stroke-linejoin="round"/>
<path d="M12.2316 13.1675C11.9291 13.1686 11.6294 13.1098 11.3498 12.9944C11.0702 12.8789 10.8162 12.7093 10.6026 12.4951L8.24954 10.1406C8.16631 10.061 8.05559 10.0166 7.94044 10.0166C7.82528 10.0166 7.71456 10.061 7.63133 10.1406L5.27033 12.5016C5.05682 12.716 4.80292 12.8861 4.52332 13.0018C4.24372 13.1176 3.94395 13.1767 3.64134 13.176H3.18066L6.16235 16.1577C6.60955 16.6039 7.2155 16.8545 7.84726 16.8545C8.47901 16.8545 9.08497 16.6039 9.53216 16.1577L12.5198 13.1695L12.2316 13.1675Z" fill="#1C1A1D"/>
<path d="M3.64183 4.84624C3.94445 4.84544 4.24423 4.90462 4.52383 5.02037C4.80344 5.13612 5.05733 5.30614 5.27083 5.5206L7.63183 7.8821C7.7139 7.96392 7.82505 8.00986 7.94093 8.00986C8.05681 8.00986 8.16797 7.96392 8.25004 7.8821L10.6026 5.52955C10.8159 5.31482 11.0698 5.14459 11.3494 5.02874C11.629 4.91289 11.9289 4.85373 12.2316 4.85469H12.5148L9.52719 1.86704C9.30596 1.64572 9.04329 1.47016 8.75419 1.35038C8.46509 1.2306 8.15522 1.16895 7.84229 1.16895C7.52936 1.16895 7.21949 1.2306 6.93039 1.35038C6.64129 1.47016 6.37862 1.64572 6.15739 1.86704L3.18066 4.84624H3.64183Z" fill="#1C1A1D"/>
<path d="M14.9861 7.32704L13.1807 5.52162C13.14 5.53827 13.0965 5.54703 13.0525 5.54746H12.2315C11.8043 5.54853 11.3948 5.7182 11.092 6.01957L8.73949 8.37063C8.52762 8.58211 8.2405 8.70089 7.94114 8.70089C7.64179 8.70089 7.35466 8.58211 7.1428 8.37063L4.7813 6.01062C4.47859 5.70907 4.06907 5.53922 3.64179 5.53802H2.63398C2.59245 5.53709 2.5514 5.52884 2.51273 5.51367L0.695884 7.32704C0.24964 7.77423 -0.000976562 8.38019 -0.000976562 9.01194C-0.000976562 9.6437 0.24964 10.2497 0.695884 10.6968L2.50875 12.5097C2.54734 12.4943 2.58844 12.486 2.63001 12.4854H3.64179C4.06906 12.4841 4.47856 12.3143 4.7813 12.0128L7.1423 9.65176C7.56918 9.22538 8.31311 9.22538 8.73949 9.65176L11.092 12.0038C11.3948 12.3052 11.8043 12.4749 12.2315 12.4759H13.0525C13.0965 12.4762 13.14 12.485 13.1807 12.5018L14.9861 10.6963C15.2075 10.4751 15.383 10.2124 15.5028 9.92334C15.6226 9.63424 15.6842 9.32438 15.6842 9.01144C15.6842 8.69851 15.6226 8.38865 15.5028 8.09955C15.383 7.81045 15.2075 7.54778 14.9861 7.32654" fill="#1C1A1D"/>
</g>
<defs>
<clipPath id="clip0_3374_2936">
<rect width="47.3478" height="16.8316" fill="white" transform="translate(0 0.0214844)"/>
</clipPath>
</defs>
</svg>
