<svg width="39" height="13" viewBox="0 0 39 13" fill="none" xmlns="http://www.w3.org/2000/svg">
<g clip-path="url(#clip0_3374_2948)">
<path d="M38.1866 12.2628H35.3808C35.2776 11.7676 35.1676 11.2863 35.0782 10.798C35.0438 10.5986 34.975 10.516 34.755 10.5229C33.6272 10.5367 32.5062 10.5367 31.3784 10.5229C31.2065 10.5229 31.1377 10.5779 31.0896 10.7361C30.9314 11.1969 30.7664 11.6576 30.5945 12.1184C30.5738 12.1802 30.4913 12.2628 30.4363 12.2628C29.4254 12.2696 28.4076 12.2628 27.3623 12.2628C27.5549 11.802 27.7337 11.3688 27.9125 10.9286C29.2191 7.80653 30.5257 4.69129 31.8392 1.56917C32.1211 0.895235 32.5475 0.613281 33.2765 0.613281C34.0879 0.613281 34.9063 0.613281 35.7384 0.613281C35.8209 0.991511 35.9034 1.36974 35.9791 1.74109C36.6255 4.82195 37.2651 7.90969 37.9115 10.9905C37.994 11.3825 38.0903 11.7745 38.1797 12.1734V12.2559L38.1866 12.2628ZM34.5143 8.12287C34.2186 6.69247 33.9229 5.27583 33.6272 3.85918H33.5928C33.077 5.26895 32.5681 6.6856 32.0455 8.12287H34.5212H34.5143Z" fill="#1C1A1D"/>
<path d="M25.9647 0.416016C26.336 0.484785 26.7074 0.5398 27.0719 0.6292C27.4088 0.704846 27.7321 0.814877 28.0897 0.91803C27.9109 1.75701 27.7389 2.57537 27.567 3.37309C27.0994 3.23555 26.6524 3.07738 26.1916 2.97423C25.5589 2.83669 24.9125 2.78167 24.2867 2.96047C24.0323 3.02924 23.771 3.16678 23.5715 3.3387C23.2277 3.63441 23.2208 4.06078 23.5509 4.37024C23.7778 4.58343 24.046 4.76223 24.3211 4.92039C24.9331 5.29175 25.5796 5.60809 26.1779 6.00695C26.8793 6.47458 27.3951 7.10725 27.4982 7.97374C27.6908 9.50042 27.1269 10.7039 25.8409 11.5566C25.0363 12.093 24.1217 12.3337 23.1727 12.4162C21.8454 12.54 20.5457 12.3887 19.2735 11.9761C19.1909 11.9486 19.1084 11.9142 19.0259 11.8798C18.9984 11.873 18.9777 11.8523 18.9434 11.8248C19.1222 10.9858 19.301 10.1468 19.4866 9.28036C19.6998 9.37663 19.9061 9.46603 20.1124 9.55543C21.1027 9.9543 22.1274 10.14 23.1864 9.94054C23.4615 9.88553 23.7434 9.76862 23.9773 9.61045C24.4862 9.27348 24.5343 8.63393 24.0735 8.22819C23.771 7.96687 23.4065 7.77431 23.0558 7.56113C22.5125 7.23104 21.9417 6.94908 21.4259 6.58461C20.7726 6.1101 20.2981 5.4843 20.2018 4.64532C20.0643 3.39372 20.5319 2.37594 21.4947 1.58509C22.3337 0.8974 23.324 0.587938 24.383 0.464154C24.4449 0.457277 24.4999 0.436646 24.5549 0.422893H25.9647V0.416016Z" fill="#1C1A1D"/>
<path d="M15.0598 0.634508C14.9017 1.01274 14.7504 1.37721 14.5991 1.73481C13.1549 5.18015 11.7108 8.62548 10.2735 12.0708C10.2047 12.2359 10.1222 12.2771 9.95716 12.2771C9.04253 12.2702 8.13478 12.2634 7.22015 12.2771C7.0276 12.2771 6.9657 12.2152 6.91757 12.0364C6.14735 9.02434 5.35651 6.01913 4.59317 3.00704C4.45563 2.45689 4.17368 2.07866 3.64416 1.84484C2.80517 1.47349 1.9318 1.21217 1.03781 0.998984C0.996544 0.992107 0.96216 0.978353 0.920898 0.971476C0.920898 0.737661 1.03322 0.620754 1.25787 0.620754C2.85331 0.620754 4.44875 0.620754 6.0442 0.620754C6.80066 0.620754 7.34394 1.06088 7.48835 1.81046C7.89409 3.92855 8.28607 6.05352 8.69181 8.1716C8.71244 8.261 8.72619 8.35728 8.7537 8.48794C8.79496 8.4123 8.82247 8.36416 8.8431 8.31602C9.83338 5.81282 10.8237 3.30275 11.8071 0.799553C11.8621 0.662015 11.924 0.613877 12.0753 0.620754C13.0036 0.627631 13.9251 0.620754 14.8535 0.620754C14.9154 0.620754 14.9704 0.620754 15.0598 0.627631V0.634508Z" fill="#1C1A1D"/>
<path d="M13.8486 12.2695C14.6807 8.37719 15.506 4.51237 16.3381 0.633789H19.357C19.2333 1.2252 19.1095 1.80286 18.9857 2.38052C18.298 5.58517 17.6172 8.78293 16.9364 11.9876C16.8882 12.2076 16.8126 12.2833 16.5788 12.2764C15.7535 12.2626 14.9214 12.2764 14.0962 12.2764H13.8486V12.2695Z" fill="#1C1A1D"/>
</g>
<defs>
<clipPath id="clip0_3374_2948">
<rect width="37.266" height="12.0415" fill="white" transform="translate(0.920898 0.416016)"/>
</clipPath>
</defs>
</svg>
